<svg width="20" height="20" viewBox="0 0 20 20" fill="none" xmlns="http://www.w3.org/2000/svg">
<path d="M9.99995 0.473999C4.74068 0.473999 0.461914 4.74768 0.461914 10.0003C0.461914 15.2529 4.74068 19.5263 9.99995 19.5263C15.2595 19.5263 19.5385 15.2531 19.5385 10.0003C19.5385 4.74768 15.2595 0.473999 9.99995 0.473999ZM16.2764 4.97015C17.3644 6.31859 18.0256 8.02159 18.0561 9.87728C17.6941 9.80294 16.1609 9.5171 14.3287 9.5171C13.7375 9.5171 13.1153 9.54678 12.4915 9.62379C12.4388 9.49571 12.3861 9.36817 12.3308 9.23928C12.169 8.85879 11.9947 8.48124 11.8142 8.1093C14.6341 6.94749 15.9943 5.33513 16.2764 4.97015ZM9.99995 1.96523C12.0324 1.96523 13.8902 2.72034 15.3092 3.96396C15.0846 4.27039 13.8664 5.79317 11.1473 6.82048C9.88872 4.51987 8.51113 2.61472 8.18331 2.17246C8.76756 2.03716 9.3756 1.96523 9.99995 1.96523ZM6.5386 2.74601C6.81642 3.12864 8.19615 5.05411 9.4871 7.33628C6.02254 8.247 2.94596 8.30636 2.20342 8.30636H2.12454C2.65798 5.84799 4.319 3.80513 6.5386 2.74601ZM1.94165 10.0128C1.94165 9.94653 1.94272 9.88022 1.94485 9.81417C1.99298 9.81471 2.06411 9.81471 2.15636 9.81471C3.1564 9.81471 6.62764 9.73208 10.2048 8.67055C10.4219 9.09516 10.6286 9.52619 10.8208 9.95696C10.7305 9.98289 10.6414 10.0088 10.5529 10.0377C6.52523 11.3386 4.31152 14.7823 3.97086 15.3451C2.70879 13.9231 1.94165 12.0562 1.94165 10.0128ZM9.99995 18.0599C8.15176 18.0599 6.44608 17.434 5.08507 16.3845C5.3153 15.9331 6.98621 12.9247 11.4 11.3886C11.4027 11.3875 11.4056 11.3864 11.4088 11.3856C12.5156 14.267 12.9843 16.6853 13.1129 17.4348C12.1551 17.8375 11.1032 18.0599 9.99995 18.0599ZM14.5643 16.6414C14.4563 16.0213 14.022 13.755 13.0198 10.9907C13.5819 10.9032 14.1287 10.8688 14.6416 10.8688C16.3258 10.8688 17.6433 11.2375 17.9494 11.3311C17.5855 13.5261 16.3288 15.4256 14.5643 16.6414Z" fill="#F1F2F2"/>
</svg>
