<svg width="15" height="18" viewBox="0 0 15 18" fill="none" xmlns="http://www.w3.org/2000/svg">
<path d="M14.6223 17.4084L13.338 4.38039C13.311 4.10765 13.0952 3.90056 12.8378 3.90056H10.4239V3.3143C10.4239 1.48686 9.02809 0 7.31256 0C5.59691 0 4.2011 1.48686 4.2011 3.3143V3.90056H1.78723C1.52977 3.90056 1.31396 4.10765 1.28702 4.38039L0.0027305 17.4084C-0.0120952 17.5593 0.0339289 17.71 0.1292 17.8228C0.2246 17.9356 0.36048 18 0.502936 18H14.1219C14.2645 18 14.4004 17.9356 14.4957 17.8228C14.5912 17.71 14.6371 17.5593 14.6223 17.4084ZM5.20693 3.3143C5.20693 2.07765 6.15152 1.07144 7.31256 1.07144C8.47348 1.07144 9.41807 2.07765 9.41807 3.3143V3.90056H5.20693V3.3143ZM1.06141 16.9286L2.24012 4.972H4.2011V6.15262C4.2011 6.44843 4.42632 6.68834 4.70402 6.68834C4.98171 6.68834 5.20693 6.44843 5.20693 6.15262V4.972H9.41807V6.15262C9.41807 6.44843 9.64329 6.68834 9.92098 6.68834C10.1987 6.68834 10.4239 6.44843 10.4239 6.15262V4.972H12.3849L13.5636 16.9286H1.06141Z" fill="white"/>
</svg>
