<svg width="51" height="65" viewBox="0 0 51 65" fill="none" xmlns="http://www.w3.org/2000/svg">
<path d="M45.7298 15.2647C45.2039 15.2647 44.7776 15.691 44.7776 16.2169V58.9597C44.7776 58.9959 44.7483 59.0252 44.7121 59.0252H11.1289C10.6031 59.0252 10.1767 59.4515 10.1767 59.9773C10.1767 60.5032 10.6031 60.9295 11.1289 60.9295H44.7121C45.7983 60.9295 46.6819 60.0459 46.6819 58.9597V16.2169C46.6819 15.691 46.2556 15.2647 45.7298 15.2647Z" fill="#FC4E4D"/>
<path d="M48.7828 4.07063H40.0181L36.8226 0.87509C36.2583 0.310782 35.5081 0 34.7101 0H1.96981C0.883595 0 0 0.883595 0 1.96981V58.9596C0 60.0458 0.883595 60.9294 1.96981 60.9294H4.07063V63.0302C4.07063 64.1164 4.95423 65 6.04044 65H48.7828C49.8691 65 50.7527 64.1164 50.7527 63.0302V6.04057C50.7527 4.95436 49.8691 4.07063 48.7828 4.07063ZM35.4875 2.23311L44.4488 11.1944H35.553C35.5169 11.1944 35.4875 11.165 35.4875 11.1289V2.23311ZM48.8484 63.0303C48.8484 63.0665 48.819 63.0958 48.7828 63.0958H6.04044C6.00426 63.0958 5.97493 63.0665 5.97493 63.0303V60.9295H7.05785C7.58369 60.9295 8.01 60.5032 8.01 59.9773C8.01 59.4515 7.58369 59.0252 7.05785 59.0252H1.96981C1.93363 59.0252 1.9043 58.9959 1.9043 58.9597V1.96981C1.9043 1.93363 1.93363 1.9043 1.96981 1.9043H33.5832V11.1289C33.5832 12.2151 34.4668 13.0987 35.553 13.0987H45.7299C46.2557 13.0987 46.682 12.6724 46.682 12.1465V11.972C46.682 11.1741 46.3712 10.4238 45.8069 9.85945L41.9224 5.97493H48.7828C48.819 5.97493 48.8484 6.00426 48.8484 6.04044V63.0303Z" fill="#FC4E4D"/>
<path d="M18.9263 10.8773C18.5545 10.5054 17.9516 10.5054 17.5798 10.8773L12.1933 16.2638C12.1677 16.2893 12.1262 16.2893 12.1007 16.2638L9.95337 14.1165H11.6063C12.1321 14.1165 12.5585 13.6902 12.5585 13.1643C12.5585 12.6385 12.1321 12.2122 11.6063 12.2122H9.0939C8.78946 12.2122 8.50204 12.2836 8.24432 12.4075L7.73181 11.895C7.35997 11.5232 6.75707 11.5232 6.38535 11.895C6.0135 12.2669 6.0135 12.8698 6.38535 13.2415L7.13386 13.99C7.12777 14.0531 7.12422 14.1171 7.12422 14.1818V20.2879C7.12422 21.3741 8.00781 22.2577 9.09402 22.2577H15.2001C16.2863 22.2577 17.1699 21.3741 17.1699 20.2879V13.9801L18.9263 12.2237C19.2982 11.8519 19.2982 11.249 18.9263 10.8773ZM15.2656 20.2881C15.2656 20.3242 15.2363 20.3536 15.2001 20.3536H9.09402C9.05784 20.3536 9.02852 20.3242 9.02852 20.2881V15.8844L10.7542 17.6101C11.1382 17.9941 11.6426 18.1862 12.1471 18.1862C12.6515 18.1862 13.1559 17.9941 13.5399 17.6101L15.2656 15.8844V20.2881Z" fill="#FC4E4D"/>
<path d="M15.2002 25.4419H9.09415C8.00794 25.4419 7.12434 26.3255 7.12434 27.4117V33.5177C7.12434 34.604 8.00794 35.4876 9.09415 35.4876H15.2002C16.2864 35.4876 17.17 34.604 17.17 33.5177V27.4117C17.17 26.3256 16.2864 25.4419 15.2002 25.4419ZM15.2657 33.5177C15.2657 33.5539 15.2364 33.5833 15.2002 33.5833H9.09415C9.05797 33.5833 9.02864 33.5539 9.02864 33.5177V27.4117C9.02864 27.3755 9.05797 27.3462 9.09415 27.3462H15.2002C15.2364 27.3462 15.2657 27.3755 15.2657 27.4117V33.5177Z" fill="#FC4E4D"/>
<path d="M15.2002 38.6716H9.09415C8.00794 38.6716 7.12434 39.5552 7.12434 40.6414V46.7475C7.12434 47.8337 8.00794 48.7173 9.09415 48.7173H15.2002C16.2864 48.7173 17.17 47.8336 17.17 46.7475V40.6414C17.17 39.5552 16.2864 38.6716 15.2002 38.6716ZM15.2657 46.7475C15.2657 46.7837 15.2364 46.813 15.2002 46.813H9.09415C9.05797 46.813 9.02864 46.7836 9.02864 46.7475V40.6414C9.02864 40.6052 9.05797 40.5759 9.09415 40.5759H15.2002C15.2364 40.5759 15.2657 40.6052 15.2657 40.6414V46.7475Z" fill="#FC4E4D"/>
<path d="M30.4654 14.2475H21.3063C20.7805 14.2475 20.3542 14.6738 20.3542 15.1996C20.3542 15.7254 20.7804 16.1518 21.3063 16.1518H30.4654C30.9912 16.1518 31.4175 15.7254 31.4175 15.1996C31.4175 14.6738 30.9912 14.2475 30.4654 14.2475Z" fill="#FC4E4D"/>
<path d="M38.6068 18.3182H21.3063C20.7805 18.3182 20.3542 18.7445 20.3542 19.2704C20.3542 19.7962 20.7804 20.2225 21.3063 20.2225H38.6068C39.1326 20.2225 39.5589 19.7962 39.5589 19.2704C39.5589 18.7445 39.1327 18.3182 38.6068 18.3182Z" fill="#FC4E4D"/>
<path d="M30.4654 27.4773H21.3063C20.7805 27.4773 20.3542 27.9036 20.3542 28.4294C20.3542 28.9552 20.7804 29.3816 21.3063 29.3816H30.4654C30.9912 29.3816 31.4175 28.9552 31.4175 28.4294C31.4175 27.9036 30.9912 27.4773 30.4654 27.4773Z" fill="#FC4E4D"/>
<path d="M38.6068 31.5479H21.3063C20.7805 31.5479 20.3542 31.9742 20.3542 32.5001C20.3542 33.0259 20.7804 33.4522 21.3063 33.4522H38.6068C39.1326 33.4522 39.5589 33.0259 39.5589 32.5001C39.5589 31.9742 39.1327 31.5479 38.6068 31.5479Z" fill="#FC4E4D"/>
<path d="M30.4654 40.7069H21.3063C20.7805 40.7069 20.3542 41.1332 20.3542 41.6591C20.3542 42.1849 20.7804 42.6112 21.3063 42.6112H30.4654C30.9912 42.6112 31.4175 42.1849 31.4175 41.6591C31.4175 41.1332 30.9912 40.7069 30.4654 40.7069Z" fill="#FC4E4D"/>
<path d="M38.6068 44.7776H21.3063C20.7805 44.7776 20.3542 45.2039 20.3542 45.7298C20.3542 46.2556 20.7804 46.6819 21.3063 46.6819H38.6068C39.1326 46.6819 39.5589 46.2556 39.5589 45.7298C39.5589 45.2039 39.1327 44.7776 38.6068 44.7776Z" fill="#FC4E4D"/>
</svg>
