<svg width="17" height="17" viewBox="0 0 17 17" fill="none" xmlns="http://www.w3.org/2000/svg">
<path d="M16.962 10.2067V16.3909H13.3765V10.6212C13.3765 9.17247 12.8589 8.18313 11.5607 8.18313C10.57 8.18313 9.9815 8.8492 9.7216 9.49414C9.62721 9.72463 9.60288 10.0447 9.60288 10.368V16.3906H6.01719C6.01719 16.3906 6.06532 6.61864 6.01719 5.6071H9.60315V7.13523C9.59593 7.14727 9.58577 7.15903 9.57935 7.17053H9.60315V7.13523C10.0796 6.40205 10.9294 5.35389 12.8345 5.35389C15.1935 5.35389 16.962 6.89512 16.962 10.2067ZM2.26625 0.409058C1.03974 0.409058 0.237305 1.21417 0.237305 2.27196C0.237305 3.30729 1.01648 4.13566 2.21919 4.13566H2.24246C3.49304 4.13566 4.2706 3.30729 4.2706 2.27196C4.24681 1.21417 3.49304 0.409058 2.26625 0.409058ZM0.450414 16.3909H4.03477V5.6071H0.450414V16.3909Z" fill="#F1F2F2"/>
</svg>
