<svg width="118" height="115" viewBox="0 0 118 115" fill="none" xmlns="http://www.w3.org/2000/svg">
<path d="M5.85873 89.8775H5.91746C6.32323 89.409 8.05308 87.5406 8.40012 87.1115C8.74715 86.6825 8.99275 86.3834 8.99275 86.1689C8.99275 85.9543 8.95004 85.9431 8.82724 85.9205C8.70444 85.8979 8.67241 85.8697 8.67241 85.7963C8.67241 85.7229 8.73648 85.6778 8.86461 85.6778C9.11555 85.6778 9.76691 85.7173 10.0873 85.7173C10.4076 85.7173 11.107 85.6778 11.4754 85.6778C11.5982 85.6778 11.6783 85.706 11.6783 85.7963C11.6783 85.8866 11.6196 85.9092 11.5021 85.9092C11.2672 85.9157 11.0348 85.9615 10.8134 86.0447C10.3282 86.26 9.89159 86.5813 9.53199 86.9874C9.1636 87.3656 7.39638 89.2453 6.96391 89.6969C7.39104 90.2896 9.71886 92.937 10.1673 93.4056C10.6479 93.9658 11.2239 94.4253 11.8652 94.7603C12.0974 94.8712 12.3474 94.9344 12.6019 94.9466C12.6874 94.9466 12.7568 94.9466 12.7568 95.0482C12.7568 95.1498 12.698 95.1724 12.4738 95.1724H11.4327C11.075 95.1724 10.8614 95.1724 10.6105 95.1724C10.042 95.1017 9.51863 94.8099 9.14224 94.3539C8.60834 93.8684 6.27518 90.967 6.02958 90.6001L5.8961 90.4025H5.85873V91.5315C5.85873 92.6887 5.85873 93.6822 5.8961 94.2184C5.8961 94.5741 6.02424 94.8507 6.32323 94.8958C6.51594 94.9263 6.71035 94.9433 6.90518 94.9466C7.00129 94.9466 7.06002 94.9861 7.06002 95.0482C7.06002 95.1103 6.96391 95.1724 6.83578 95.1724C6.1684 95.1724 5.42093 95.1385 5.12194 95.1385C4.82296 95.1385 4.10219 95.1724 3.62701 95.1724C3.47218 95.1724 3.38675 95.1385 3.38675 95.0482C3.38675 94.9579 3.43481 94.9466 3.57896 94.9466C3.72275 94.948 3.86618 94.931 4.00608 94.8958C4.24634 94.8507 4.30507 94.5741 4.35312 94.2071C4.41185 93.6822 4.41185 92.6887 4.41185 91.5315V89.3243C4.41185 87.4164 4.41185 87.0664 4.41185 86.66C4.41185 86.2535 4.29439 86.0334 3.87795 85.9431C3.71791 85.909 3.55531 85.8901 3.39209 85.8866C3.25862 85.8866 3.18921 85.8866 3.18921 85.7737C3.18921 85.6608 3.27463 85.6552 3.45082 85.6552C4.08083 85.6552 4.8283 85.6947 5.11126 85.6947C5.39423 85.6947 6.14704 85.6552 6.55281 85.6552C6.71832 85.6552 6.7984 85.6834 6.7984 85.7737C6.7984 85.864 6.729 85.8866 6.63289 85.8866C6.52185 85.888 6.41111 85.8993 6.30187 85.9205C5.98153 85.9826 5.88543 86.1971 5.86407 86.6374C5.84271 87.0777 5.86407 87.3938 5.86407 89.3018L5.85873 89.8775Z" fill="#18191B"/>
<path d="M17.1125 91.2069C17.3537 91.2069 17.5406 91.2069 17.5406 91.3176C17.5406 91.4284 17.3175 91.4534 16.9376 91.4927C16.4009 91.5391 13.9226 91.7964 13.4763 91.875C13.211 91.9143 12.9939 92 12.8733 92C12.7527 92 12.7406 91.9393 12.7708 91.8571L12.9698 91.3105C13.012 91.214 13.0663 91.2069 13.2894 91.2069H17.1125Z" fill="#18191B"/>
<path d="M21.8102 91.5115C21.8102 93.1117 21.8102 93.9708 22.0673 94.201C22.3244 94.4312 22.6144 94.4705 23.5389 94.4705C24.1843 94.4705 24.6603 94.4705 24.9611 94.1224C25.1308 93.9076 25.2405 93.6495 25.2784 93.3756C25.2784 93.2633 25.3167 93.1847 25.4152 93.1847C25.5136 93.1847 25.5136 93.2465 25.5136 93.3981C25.4863 93.8813 25.4242 94.3618 25.3276 94.8355C25.2565 95.1106 25.1964 95.1724 24.5618 95.1724C23.6865 95.1724 23.052 95.1724 22.505 95.1331C21.9579 95.0938 21.5203 95.0994 21.0225 95.0994C20.8858 95.0994 20.6177 95.0994 20.3278 95.0994C20.0379 95.0994 19.7315 95.0994 19.4854 95.0994C19.3267 95.0994 19.2447 95.0657 19.2447 94.9759C19.2447 94.886 19.2939 94.8748 19.4361 94.8748C19.5835 94.8765 19.7305 94.8596 19.8737 94.8243C20.1199 94.7794 20.1801 94.5042 20.2293 94.1393C20.2895 93.6171 20.2895 92.6289 20.2895 91.4778V89.2824C20.2895 87.3845 20.2895 87.0364 20.2895 86.6322C20.2895 86.2279 20.1637 86.0089 19.7425 85.9191C19.6108 85.894 19.477 85.8827 19.3431 85.8854C19.2064 85.8854 19.1353 85.8854 19.1353 85.7731C19.1353 85.6608 19.2173 85.6552 19.4033 85.6552C19.9503 85.6552 20.7381 85.6945 21.0444 85.6945C21.3507 85.6945 22.226 85.6552 22.6855 85.6552C22.8551 85.6552 22.9426 85.6832 22.9426 85.7731C22.9426 85.8629 22.866 85.8854 22.7238 85.8854C22.5646 85.8858 22.4056 85.897 22.2479 85.9191C21.9196 85.9808 21.8212 86.1942 21.7993 86.6322C21.7774 87.0701 21.7993 87.3845 21.7993 89.2824L21.8102 91.5115Z" fill="#18191B"/>
<path d="M29.5305 91.9132C29.5497 91.4562 29.452 91.0019 29.2471 90.5949C29.1638 90.3912 27.5081 87.6242 27.0747 86.9679C26.8525 86.6056 26.5616 86.2921 26.219 86.0456C26.0595 85.9567 25.8835 85.9027 25.7023 85.8872C25.6023 85.8872 25.5134 85.8872 25.5134 85.774C25.5134 85.6608 25.6023 85.6552 25.7523 85.6552C25.9024 85.6552 26.9024 85.6948 27.308 85.6948C27.5692 85.6948 28.0748 85.6552 28.6304 85.6552C28.7526 85.6552 28.8137 85.6948 28.8137 85.774C28.8137 85.8475 28.7304 85.8589 28.5415 85.9098C28.4916 85.9215 28.4471 85.9504 28.4158 85.9917C28.3844 86.0329 28.3679 86.084 28.3693 86.1361C28.3901 86.2883 28.4411 86.4347 28.5193 86.5662C28.6915 86.9396 30.425 89.9611 30.6195 90.3289C30.7417 90.029 32.2863 87.2565 32.4752 86.866C32.5755 86.6613 32.634 86.438 32.6474 86.2097C32.6507 86.1338 32.6256 86.0594 32.5771 86.0016C32.5286 85.9439 32.4604 85.907 32.3863 85.8985C32.2752 85.8702 32.1641 85.8475 32.1641 85.774C32.1641 85.7004 32.2252 85.6552 32.3752 85.6552C32.7863 85.6552 33.1808 85.6948 33.5364 85.6948C33.892 85.6948 34.6476 85.6552 34.8588 85.6552C34.9977 85.6552 35.081 85.6835 35.081 85.757C35.081 85.8306 34.9865 85.8872 34.8476 85.8872C34.6541 85.8943 34.4645 85.9446 34.292 86.0343C34.0225 86.1796 33.7932 86.3917 33.6253 86.651C32.7629 87.9388 31.9744 89.2764 31.264 90.6571C31.1165 91.0579 31.054 91.486 31.0806 91.9132V92.9487C31.0806 93.1467 31.0806 93.6786 31.114 94.2048C31.114 94.5726 31.2529 94.8499 31.6251 94.8952C31.8293 94.9262 32.0354 94.9432 32.2418 94.9461C32.3752 94.9461 32.4363 94.9857 32.4363 95.0479C32.4363 95.1102 32.3418 95.1724 32.1807 95.1724C31.4029 95.1724 30.6195 95.1385 30.2861 95.1385C29.9527 95.1385 29.1749 95.1724 28.7415 95.1724C28.5693 95.1724 28.4693 95.1724 28.4693 95.0479C28.4693 94.9234 28.5304 94.9461 28.6693 94.9461C28.8152 94.9468 28.9607 94.9297 29.1027 94.8952C29.3471 94.8499 29.4582 94.5726 29.486 94.2048C29.5194 93.6786 29.5194 93.1467 29.5194 92.9487L29.5305 91.9132Z" fill="#18191B"/>
<path d="M37.8472 93.3951C37.8472 94.3441 38.0159 94.6623 38.2409 94.75C38.4332 94.8117 38.6335 94.8395 38.8341 94.8323C38.9619 94.8323 39.0284 94.8323 39.0284 94.931C39.0284 95.0298 38.9261 95.0517 38.7676 95.0517C38.0261 95.0517 37.571 95.0188 37.3563 95.0188C37.254 95.0188 36.717 95.0517 36.129 95.0517C35.9807 95.0517 35.8784 95.0517 35.8784 94.931C35.8784 94.8104 35.9449 94.8323 36.0574 94.8323C36.2296 94.8361 36.4015 94.8158 36.5688 94.772C36.8653 94.6732 36.9114 94.3222 36.9216 93.258L37.0239 86.0721C37.0239 85.8252 37.0597 85.6552 37.1722 85.6552C37.2847 85.6552 37.4023 85.8142 37.5966 86.0337C37.7909 86.2531 39.4579 88.1456 41.1199 89.9174C41.8971 90.7457 43.4312 92.501 43.6255 92.6985H43.6818L43.5693 87.213C43.5693 86.467 43.4517 86.2366 43.1807 86.1159C42.9844 86.0577 42.7806 86.0336 42.5772 86.0446C42.4392 86.0446 42.3932 86.0062 42.3932 85.9349C42.3932 85.8636 42.521 85.8197 42.6897 85.8197C43.2829 85.8197 43.8301 85.8581 44.0653 85.8581C44.1932 85.8581 44.6227 85.8197 45.1801 85.8197C45.3284 85.8197 45.446 85.8197 45.446 85.9349C45.446 86.0501 45.3744 86.0446 45.2414 86.0446C45.1264 86.0402 45.0113 86.0512 44.8988 86.0775C44.5818 86.1763 44.4897 86.4341 44.4795 87.1143L44.3517 94.7939C44.3517 95.0627 44.3056 95.1724 44.2034 95.1724C44.1011 95.1724 43.9426 95.0408 43.8147 94.9036C43.0988 94.1741 41.6466 92.5723 40.4602 91.3161C39.2739 90.06 37.9597 88.5076 37.7551 88.2772H37.7193L37.8472 93.3951Z" fill="#18191B"/>
<path d="M49.109 89.3708C49.109 87.4907 49.109 87.1459 49.109 86.7454C49.109 86.3449 48.9848 86.128 48.5441 86.039C48.3815 86.0142 48.2171 86.003 48.0526 86.0056C47.9113 86.0056 47.8379 86.0056 47.8379 85.8943C47.8379 85.7831 47.9283 85.7775 48.1147 85.7775H49.1316H49.9226C50.3294 85.7775 52.8265 85.7775 53.0694 85.7775C53.3123 85.7775 53.5044 85.7275 53.6344 85.7052C53.6999 85.6807 53.7682 85.6639 53.8377 85.6552C53.8999 85.6552 53.9112 85.7052 53.9112 85.7664C53.9112 85.8276 53.849 86 53.8095 86.5674C53.8095 86.6953 53.7756 87.2349 53.7474 87.3851C53.7474 87.4463 53.7135 87.5241 53.6231 87.5241C53.5327 87.5241 53.5101 87.4629 53.5101 87.3461C53.5111 87.1948 53.4862 87.0444 53.4366 86.9011C53.3462 86.6786 53.2219 86.534 52.5948 86.4562C52.3802 86.4562 51.0582 86.4061 50.8096 86.4061C50.7418 86.4061 50.7192 86.445 50.7192 86.534V89.6656C50.7192 89.7491 50.7192 89.7991 50.8096 89.7991C51.0864 89.7991 52.5044 89.7991 52.8208 89.7991C53.0371 89.8097 53.25 89.7425 53.4197 89.61C53.5101 89.5099 53.5609 89.4487 53.6231 89.4487C53.6852 89.4487 53.7135 89.4487 53.7135 89.5488C53.7135 89.649 53.6626 89.8214 53.6118 90.4499C53.6118 90.7002 53.5609 91.1953 53.5609 91.2843C53.5609 91.3733 53.5609 91.5179 53.4479 91.5179C53.4324 91.521 53.4164 91.5202 53.4013 91.5157C53.3861 91.5112 53.3724 91.5031 53.3612 91.4921C53.35 91.4811 53.3418 91.4675 53.3372 91.4526C53.3326 91.4377 53.3318 91.4219 53.3349 91.4067C53.3298 91.2573 53.3128 91.1085 53.2841 90.9617C53.2219 90.7114 53.0468 90.5278 52.5779 90.4778C52.3406 90.4499 51.0977 90.4388 50.7926 90.4388C50.7305 90.4388 50.7192 90.4889 50.7192 90.5612V91.5457C50.7192 91.9685 50.7192 93.1088 50.7192 93.4648C50.7192 94.3214 50.9452 94.5049 52.2276 94.5049C52.6273 94.5292 53.0281 94.4782 53.4084 94.3547C53.7361 94.2101 53.8886 93.9487 53.9733 93.4425C53.9733 93.3034 54.0242 93.2534 54.1146 93.2534C54.205 93.2534 54.2163 93.3535 54.2163 93.4759C54.1947 93.9371 54.1399 94.3962 54.0524 94.8498C53.962 95.1724 53.849 95.1724 53.3688 95.1724C52.431 95.1724 51.7361 95.1724 51.1994 95.1335C50.6627 95.0945 50.2672 95.1001 49.8887 95.1001C49.7531 95.1001 49.4763 95.1001 49.1712 95.1001C48.8661 95.1001 48.5554 95.1001 48.3068 95.1001C48.143 95.1001 48.0526 95.0667 48.0526 94.9777C48.0526 94.8887 48.1034 94.8776 48.256 94.8776C48.4003 94.896 48.5462 94.8979 48.691 94.8832C48.9452 94.8387 49.0074 94.5661 49.0582 94.2046C49.1203 93.6872 49.1203 92.7083 49.1203 91.568L49.109 89.3708Z" fill="#18191B"/>
<path d="M60.2676 89.2953C60.2676 87.3907 60.2676 87.0413 60.2676 86.6356C60.2676 86.2299 60.1431 86.0102 59.7017 85.92C59.5408 85.8946 59.3779 85.8833 59.215 85.8862C59.0736 85.8862 59 85.8862 59 85.7735C59 85.6608 59.0849 85.6552 59.2773 85.6552C59.9451 85.6552 60.7373 85.6946 60.975 85.6946C61.5918 85.6946 62.1068 85.6552 62.5143 85.6552C64.7779 85.6552 65.1967 86.8723 65.1967 87.5372C65.1967 88.5684 64.6308 89.1826 63.9121 89.7348C64.942 90.0841 66.1757 90.9745 66.1757 92.4395C66.1757 93.7806 65.1287 95.1724 62.8142 95.1724C62.6614 95.1724 62.2936 95.1724 61.9314 95.133C61.5692 95.0935 61.1731 95.0992 60.9863 95.0992C60.7996 95.0992 60.5732 95.0992 60.2676 95.0992C59.962 95.0992 59.6508 95.0992 59.4018 95.0992C59.1528 95.0992 59.1471 95.0653 59.1471 94.9752C59.1471 94.885 59.1981 94.8738 59.3509 94.8738C59.5033 94.8752 59.6553 94.8581 59.8036 94.823C60.0526 94.778 60.1205 94.5019 60.1658 94.1356C60.2337 93.6116 60.2337 92.6198 60.2337 91.4647L60.2676 89.2953ZM61.7786 89.5038C61.7786 89.6052 61.8125 89.6334 61.8635 89.6446C62.0506 89.6742 62.24 89.6874 62.4294 89.6841C62.7512 89.7215 63.0752 89.6348 63.3348 89.4418C63.5162 89.2746 63.6568 89.0684 63.7461 88.839C63.8353 88.6095 63.8708 88.3628 63.8498 88.1176C63.8498 87.2724 63.3575 86.1736 62.2766 86.1736C62.1392 86.161 62.0009 86.161 61.8635 86.1736C61.7729 86.1736 61.7503 86.2525 61.7503 86.3877L61.7786 89.5038ZM63.4367 90.5068C63.1273 90.306 62.7647 90.202 62.3954 90.2081C62.1634 90.2081 62.0389 90.2081 61.8295 90.2081C61.7786 90.2081 61.756 90.2081 61.756 90.2926V93.2678C61.756 94.0905 61.7899 94.3046 62.1917 94.4681C62.4852 94.5821 62.7994 94.6339 63.1141 94.6202C63.3243 94.6294 63.5341 94.5934 63.7291 94.5146C63.924 94.4359 64.0997 94.3163 64.2442 94.1639C64.3886 94.0116 64.4984 93.83 64.5661 93.6316C64.6337 93.4333 64.6577 93.2227 64.6364 93.0143C64.6549 92.5309 64.5554 92.0502 64.3465 91.6135C64.1375 91.1768 63.8253 90.797 63.4367 90.5068Z" fill="#18191B"/>
<path d="M69.8399 89.3708C69.8399 87.4907 69.8399 87.1459 69.8399 86.7454C69.8399 86.3449 69.7155 86.128 69.2745 86.039C69.1117 86.0142 68.9471 86.003 68.7825 86.0056C68.6468 86.0056 68.5676 86.0056 68.5676 85.8943C68.5676 85.7831 68.6581 85.7775 68.8447 85.7775H69.8682H70.6598C71.0613 85.7775 73.5663 85.7775 73.8038 85.7775C74.0413 85.7775 74.2448 85.7275 74.3692 85.7052C74.4329 85.6808 74.4994 85.6639 74.5672 85.6552C74.6294 85.6552 74.6463 85.7052 74.6463 85.7664C74.5954 86.0311 74.5614 86.2986 74.5445 86.5674C74.5445 86.6953 74.505 87.2349 74.4823 87.3851C74.4823 87.4463 74.4427 87.5241 74.3523 87.5241C74.2618 87.5241 74.2392 87.4629 74.2392 87.3461C74.2402 87.1948 74.2153 87.0444 74.1657 86.9011C74.0752 86.6786 73.9508 86.534 73.3231 86.4562C73.1083 86.4562 71.7907 86.4061 71.5363 86.4061C71.4741 86.4061 71.4515 86.445 71.4515 86.534V89.6656C71.4515 89.7491 71.4515 89.7991 71.5363 89.7991C71.8134 89.7991 73.2609 89.7991 73.5493 89.7991C73.7675 89.8096 73.9823 89.7424 74.1544 89.61C74.2392 89.5099 74.2901 89.4487 74.3523 89.4487C74.4145 89.4487 74.4427 89.4487 74.4427 89.5488C74.4427 89.649 74.3919 89.8214 74.341 90.4499C74.341 90.7002 74.2901 91.1953 74.2901 91.2843C74.2901 91.3733 74.2901 91.5179 74.177 91.5179C74.1617 91.5197 74.1462 91.5181 74.1316 91.5131C74.1171 91.5081 74.1039 91.5 74.093 91.4893C74.0821 91.4786 74.0738 91.4656 74.0688 91.4513C74.0637 91.437 74.0621 91.4217 74.0639 91.4067C74.0588 91.2573 74.0418 91.1085 74.013 90.9617C73.9508 90.7114 73.7755 90.5278 73.3118 90.4778C73.0687 90.4499 71.8247 90.4388 71.525 90.4388C71.4628 90.4388 71.4515 90.4889 71.4515 90.5612V91.5457C71.4515 91.9685 71.4515 93.1088 71.4515 93.4648C71.4515 94.3214 71.6777 94.5049 72.9556 94.5049C73.3575 94.5292 73.7605 94.4782 74.1431 94.3547C74.4654 94.2101 74.618 93.9487 74.7085 93.4425C74.7085 93.3034 74.7594 93.2534 74.8442 93.2534C74.929 93.2534 74.946 93.3535 74.946 93.4759C74.9244 93.9371 74.8696 94.3962 74.782 94.8498C74.6916 95.1724 74.5785 95.1724 74.1035 95.1724C73.1592 95.1724 72.4693 95.1724 71.9265 95.1335C71.3836 95.0945 70.9934 95.1001 70.6202 95.1001C70.4789 95.1001 70.2018 95.1001 69.9021 95.1001C69.6024 95.1001 69.2858 95.1001 69.0313 95.1001C68.8673 95.1001 68.7825 95.0667 68.7825 94.9777C68.7825 94.8887 68.8334 94.8776 68.9804 94.8776C69.1346 94.8793 69.2884 94.8624 69.4384 94.8275C69.6872 94.783 69.7494 94.5105 69.8003 94.1489C69.8625 93.6316 69.8625 92.6526 69.8625 91.5124L69.8399 89.3708Z" fill="#18191B"/>
<path d="M78.8507 92.0278C78.7933 92.0278 78.7725 92.0556 78.7464 92.1278L78.1207 93.7946C78.0258 94.0331 77.9677 94.2863 77.9487 94.5446C77.9487 94.7668 78.0529 94.9279 78.4127 94.9279H78.5848C78.7255 94.9279 78.762 94.9279 78.762 95.028C78.762 95.128 78.689 95.1502 78.5639 95.1502C78.1937 95.1502 77.6932 95.1168 77.3334 95.1168C77.2031 95.1168 76.567 95.1502 75.9621 95.1502C75.8162 95.1502 75.7432 95.1502 75.7432 95.028C75.7432 94.9057 75.7901 94.9279 75.8839 94.9279C75.9778 94.9279 76.1498 94.9279 76.2437 94.9279C76.7651 94.8557 76.9945 94.4335 77.2291 93.8168L80.1385 86.1496C80.2793 85.7941 80.3471 85.6552 80.467 85.6552C80.5869 85.6552 80.6391 85.7663 80.7538 86.0552C81.0353 86.733 82.8915 91.6778 83.6318 93.5556C84.0698 94.6668 84.4087 94.8391 84.6746 94.9002C84.8342 94.9345 84.9967 94.9513 85.1595 94.9502C85.2534 94.9502 85.3107 94.9502 85.3107 95.0502C85.3107 95.1502 85.2065 95.1724 84.7893 95.1724C84.3722 95.1724 83.5224 95.1724 82.5943 95.1724C82.3857 95.1724 82.2502 95.1724 82.2502 95.0724C82.2502 94.9724 82.2919 94.9724 82.4118 94.9613C82.4375 94.9518 82.4609 94.9366 82.4805 94.9165C82.5001 94.8965 82.5154 94.8722 82.5253 94.8452C82.5352 94.8183 82.5395 94.7894 82.5379 94.7605C82.5363 94.7316 82.5289 94.7035 82.5161 94.6779L81.588 92.1333C81.581 92.107 81.5659 92.0839 81.5451 92.0677C81.5243 92.0516 81.499 92.0434 81.4733 92.0444L78.8507 92.0278ZM81.2178 91.4111C81.2752 91.4111 81.2908 91.3722 81.2752 91.3388L80.2324 88.2942C80.2324 88.2442 80.2324 88.1831 80.175 88.1831C80.1177 88.1831 80.1177 88.2442 80.1072 88.2942L79.0644 91.3222C79.0644 91.3722 79.0644 91.4111 79.1114 91.4111H81.2178Z" fill="#18191B"/>
<path d="M86.6166 89.2387C86.6166 87.3637 86.6166 87.0198 86.6166 86.6204C86.6166 86.221 86.4831 86.0046 86.0362 85.9159C85.8692 85.8911 85.7003 85.88 85.5313 85.8826C85.392 85.8826 85.3108 85.8826 85.3108 85.7717C85.3108 85.6607 85.4036 85.6552 85.5952 85.6552C86.28 85.6552 87.0924 85.694 87.4813 85.694C87.8701 85.694 88.6071 85.6552 89.0714 85.6552C89.2629 85.6552 89.3558 85.6829 89.3558 85.7717C89.3558 85.8604 89.2745 85.8826 89.1468 85.8826C89.0222 85.8832 88.8979 85.8943 88.7754 85.9159C88.4214 85.9769 88.3228 86.1877 88.2937 86.6204C88.2647 87.0531 88.2937 87.3637 88.2937 89.2387V90.9639C88.2937 92.7557 88.6651 93.5046 89.2977 93.9983C89.7514 94.3524 90.3259 94.5341 90.9111 94.5086C91.5739 94.5161 92.2134 94.2751 92.6927 93.8374C93.4065 93.1606 93.4413 92.0512 93.4413 90.7809V89.2387C93.4413 87.3637 93.4413 87.0198 93.4413 86.6204C93.4413 86.221 93.3137 86.0046 92.861 85.9159C92.7075 85.8921 92.5522 85.8809 92.3967 85.8826C92.2574 85.8826 92.1762 85.8826 92.1762 85.7717C92.1762 85.6607 92.2691 85.6552 92.449 85.6552C93.1106 85.6552 93.923 85.694 93.9346 85.694C94.0913 85.694 94.9038 85.6552 95.4087 85.6552C95.5886 85.6552 95.6757 85.6829 95.6757 85.7717C95.6757 85.8604 95.6002 85.8826 95.4435 85.8826C95.3189 85.8832 95.1946 85.8943 95.0721 85.9159C94.7239 85.9769 94.6194 86.1877 94.5904 86.6204C94.5614 87.0531 94.5904 87.3637 94.5904 89.2387V90.559C94.5904 91.9291 94.4511 93.3825 93.3659 94.2701C92.6219 94.884 91.6609 95.2034 90.6789 95.1632C89.6452 95.2306 88.6226 94.9258 87.8121 94.3089C87.1563 93.7542 86.6514 92.8278 86.6514 91.036L86.6166 89.2387Z" fill="#18191B"/>
<path d="M100.147 86.5067L98.2165 86.5735C97.4584 86.5735 97.1493 86.6625 96.9569 86.9297C96.8573 87.0611 96.7823 87.208 96.7353 87.3638C96.7062 87.464 96.6712 87.5141 96.5895 87.5141C96.5079 87.5141 96.4729 87.4529 96.4729 87.3137C96.4729 87.1746 96.7236 85.9891 96.747 85.8945C96.7703 85.7999 96.8228 85.6552 96.9044 85.6552C97.0832 85.7233 97.2688 85.7737 97.4584 85.8054C97.8374 85.8444 98.3331 85.8667 98.7588 85.8667H103.896C104.195 85.8656 104.493 85.8451 104.788 85.8054C104.905 85.7776 105.024 85.7572 105.144 85.7442C105.232 85.7442 105.243 85.8166 105.243 86.0058C105.243 86.195 105.208 87.1189 105.208 87.4417C105.208 87.5642 105.167 87.6365 105.092 87.6365C105.016 87.6365 104.957 87.5753 104.946 87.3916V87.2525C104.946 86.9297 104.567 86.5846 103.412 86.5624L101.779 86.5234V91.5826C101.779 92.7235 101.779 93.7031 101.844 94.2318C101.884 94.5824 101.96 94.8552 102.351 94.8997C102.569 94.9306 102.789 94.9474 103.01 94.9498C103.156 94.9498 103.22 94.9887 103.22 95.05C103.22 95.1112 103.115 95.1724 102.975 95.1724C102.118 95.1724 101.301 95.139 100.94 95.139C100.578 95.139 99.8201 95.1724 99.3011 95.1724C99.132 95.1724 99.0445 95.139 99.0445 95.05C99.0445 94.9609 99.097 94.9498 99.2486 94.9498C99.4057 94.9515 99.5624 94.9347 99.7151 94.8997C99.9775 94.8552 100.053 94.5825 100.094 94.2207C100.158 93.7031 100.158 92.7235 100.158 91.5826L100.147 86.5067Z" fill="#18191B"/>
<path d="M109.26 91.9132C109.279 91.4562 109.182 91.0019 108.977 90.5949C108.888 90.3912 107.232 87.6242 106.799 86.9679C106.58 86.6048 106.291 86.291 105.949 86.0456C105.788 85.9558 105.61 85.9018 105.427 85.8872C105.332 85.8872 105.243 85.8872 105.243 85.774C105.243 85.6608 105.332 85.6552 105.477 85.6552C105.621 85.6552 106.627 85.6948 107.038 85.6948C107.293 85.6948 107.799 85.6552 108.36 85.6552C108.482 85.6552 108.543 85.6948 108.543 85.774C108.543 85.8475 108.455 85.8589 108.271 85.9098C108.221 85.9215 108.177 85.9504 108.145 85.9917C108.114 86.0329 108.098 86.084 108.099 86.1361C108.12 86.2883 108.171 86.4347 108.249 86.5662C108.421 86.9396 110.149 89.9611 110.349 90.3289C110.471 90.029 112.016 87.2565 112.205 86.866C112.305 86.6613 112.364 86.438 112.377 86.2097C112.38 86.1338 112.355 86.0594 112.307 86.0016C112.258 85.9439 112.19 85.907 112.116 85.8985C112.005 85.8702 111.894 85.8475 111.894 85.774C111.894 85.7004 111.955 85.6552 112.105 85.6552C112.511 85.6552 112.905 85.6948 113.266 85.6948C113.538 85.6948 114.377 85.6552 114.588 85.6552C114.722 85.6552 114.811 85.6835 114.811 85.757C114.811 85.8306 114.711 85.8872 114.577 85.8872C114.384 85.8928 114.194 85.9431 114.022 86.0343C113.752 86.1796 113.523 86.3917 113.355 86.651C112.491 87.9375 111.702 89.2752 110.994 90.6571C110.842 91.0569 110.778 91.4855 110.805 91.9132V92.9487C110.805 93.1467 110.805 93.6786 110.844 94.2048C110.844 94.5726 110.983 94.8499 111.349 94.8952C111.555 94.9264 111.763 94.9434 111.972 94.9461C112.105 94.9461 112.166 94.9857 112.166 95.0479C112.166 95.1102 112.066 95.1724 111.905 95.1724C111.127 95.1724 110.349 95.1385 110.016 95.1385C109.682 95.1385 108.905 95.1724 108.471 95.1724C108.299 95.1724 108.199 95.1724 108.199 95.0479C108.199 94.9234 108.26 94.9461 108.399 94.9461C108.543 94.9469 108.687 94.9298 108.827 94.8952C109.077 94.8499 109.188 94.5726 109.21 94.2048C109.249 93.6786 109.249 93.1467 109.249 92.9487L109.26 91.9132Z" fill="#18191B"/>
<path fill-rule="evenodd" clip-rule="evenodd" d="M49.8205 45.7465V19.1038H54.0981C55.2315 19.1074 56.3175 19.5576 57.1189 20.356C57.9203 21.1545 58.3722 22.2365 58.3758 23.3657V39.6282C56.0822 40.444 53.9645 41.6854 52.1347 43.2865L52.0117 43.3954L51.8841 43.5089L51.7611 43.6224C51.7201 43.6632 51.6791 43.6995 51.6427 43.7404L51.5197 43.8538L51.4013 43.9718L51.2783 44.0898L51.1598 44.2124L51.0459 44.3304L50.9275 44.4529C50.891 44.4938 50.85 44.5346 50.8136 44.58L50.6997 44.7026C50.6587 44.7434 50.6223 44.7888 50.5858 44.8297L50.4719 44.9568L50.3626 45.0838L50.2533 45.2155C50.2168 45.2609 50.1758 45.3017 50.1439 45.3471L50.0346 45.4787L49.9253 45.6149L49.8205 45.7465ZM49.8205 54.638V48.9282L49.9526 48.7603L49.989 48.7194L50.0893 48.5923L50.112 48.5651L50.2168 48.438L50.2533 48.3926L50.5266 48.0704L50.5721 48.0204L50.6678 47.907L50.7043 47.8661L50.9913 47.5439L51.0186 47.5166L51.1325 47.3941L51.178 47.3396L51.2828 47.2262L51.3193 47.1898C51.3648 47.1354 51.4149 47.0854 51.4605 47.0355L51.6108 46.8767L51.7429 46.7405L51.8887 46.5907L52.1985 46.2866L52.3306 46.1595H52.3579L52.6768 45.86L52.8362 45.7193C55.1743 43.5575 57.9502 41.92 60.977 40.9172H61.0408L61.4098 40.8083H61.4781L61.8562 40.7039H61.9109L62.412 40.3953H62.4393L62.8356 40.3045H62.863L63.2639 40.2228H63.314L63.7103 40.1547H63.765L64.1522 40.0957H64.2205L64.6077 40.0458H64.6624C64.7991 40.0458 64.9312 40.014 65.0679 40.0049H65.0906L65.5052 39.9732H65.5325H65.9425H65.9926H66.3935H66.9174H67.3137H67.3684L67.783 39.9959L68.2066 40.0276C68.3478 40.0276 68.4891 40.0549 68.6257 40.0685H68.6804L69.0813 40.1184H69.1496L69.5505 40.1819H69.6097L70.0152 40.2591H70.0744L70.4844 40.3499H70.5254L70.9354 40.4497H70.9627L71.3818 40.5632H71.4365L71.8419 40.6812H71.9012L72.3021 40.8128L72.3749 40.8401L72.7758 40.9808H72.8351L73.2496 41.1396H73.2815L73.7052 41.3121L74.1243 41.4982H74.1789L74.5798 41.6888L74.6527 41.7251L75.049 41.9248L75.1128 41.9566L75.5091 42.1699L75.582 42.2108L75.9829 42.4377H76.0239L76.4521 42.6964C90.6928 51.4563 86.7294 78.6301 65.4596 79.1157C55.155 79.3517 45.6203 71.1955 45.0098 60.2888V46.2412C45.0165 45.187 44.7682 44.1466 44.2861 43.2081C43.804 42.2695 43.1022 41.4604 42.2401 40.8491C43.1098 40.2456 43.8206 39.442 44.3123 38.5065C44.804 37.571 45.062 36.5312 45.0645 35.4752V16.907H45.0053V8.2833C45.1009 2.94568 49.6565 0 49.6565 0C42.8596 2.0243 42.6865 9.82649 42.6865 9.82649V35.4888C42.6817 36.5992 42.2365 37.6627 41.4481 38.4474C40.6596 39.2322 39.5917 39.6746 38.4772 39.6781H34.2724V16.907H31.8899V64.4191H34.2679V42.0474H38.4726C39.5875 42.0522 40.6554 42.4956 41.4438 43.281C42.2321 44.0665 42.6772 45.1304 42.682 46.2412V60.8198C42.682 61.1466 42.682 61.4734 42.682 61.7957C42.682 62.1179 42.723 62.4357 42.7594 62.7488C42.7913 63.062 42.8368 63.3752 42.887 63.6566C42.9371 63.9652 42.9963 64.2693 43.0646 64.5643C43.0646 64.6279 43.0965 64.696 43.1102 64.7641C45.8891 76.5649 60.7401 82.8829 72.2975 79.0885C72.5708 78.9977 72.8442 78.9024 73.1129 78.8025C73.3817 78.6982 73.6505 78.5938 73.9193 78.4803L74.2108 78.3441L74.7119 78.1217C74.9762 77.9946 75.2313 77.863 75.4909 77.7269C75.746 77.5907 76.0011 77.4454 76.2517 77.2957C79.467 75.3751 82.0494 72.5609 83.6818 69.1985C83.8321 68.8944 83.9779 68.5812 84.1373 68.2635C84.2968 67.9457 84.4152 67.6235 84.5428 67.2922C84.6703 66.9608 84.7933 66.6204 84.9118 66.2755C85.0302 65.9305 85.1395 65.581 85.2443 65.2225C85.3491 64.8639 85.4493 64.4963 85.5404 64.1195C86.0975 61.6116 86.239 59.0297 85.9595 56.4762C85.9595 56.2039 85.9049 55.9316 85.873 55.6683L85.8457 55.4368C85.8183 55.228 85.7864 55.0238 85.7546 54.8196L85.7272 54.6289C85.6817 54.3702 85.6361 54.116 85.5814 53.8619C85.5814 53.8119 85.5587 53.762 85.5495 53.7076L85.4129 53.0994L85.3582 52.886C85.3036 52.6682 85.2443 52.4321 85.1851 52.2415L85.1897 52.1961C85.1213 51.9556 85.0484 51.7423 84.971 51.4926L84.9027 51.2975C84.8389 51.1204 84.7751 50.9389 84.7113 50.7664L84.643 50.5894C84.558 50.3625 84.4669 50.1401 84.3697 49.9222L84.3287 49.8223C84.2467 49.6362 84.1601 49.4502 84.0736 49.2686C84.0417 49.2096 84.0143 49.1461 83.9824 49.0871C83.8959 48.91 83.8093 48.7376 83.7182 48.5696L83.659 48.4516C83.5497 48.2489 83.4358 48.0492 83.3173 47.8525L83.2262 47.6982C83.1351 47.5484 83.0395 47.3941 82.9438 47.2443C82.9119 47.1898 82.8755 47.1354 82.839 47.0809C82.716 46.8903 82.5885 46.7042 82.4563 46.5181L82.4199 46.4727C82.3015 46.3048 82.1785 46.1368 82.0509 45.9734L81.9325 45.8191L81.5953 45.4061L81.4951 45.2881C81.3539 45.1202 81.2081 44.9568 81.0396 44.7934L80.9302 44.6754L80.5704 44.2986L80.4337 44.1625C80.2833 44.0172 80.1376 43.872 79.9781 43.7313L79.9508 43.704C79.7898 43.5528 79.6258 43.4015 79.4588 43.2502L79.3176 43.1276C79.1855 43.0142 79.0534 42.9098 78.9212 42.8008L78.7937 42.701C78.6236 42.5648 78.4505 42.4332 78.2744 42.3061L78.1696 42.2289L77.714 41.9248L77.5546 41.8159L77.0763 41.5073L77.0034 41.4619C76.8166 41.3439 76.6298 41.2349 76.443 41.126L76.2881 41.0398L75.8326 40.7992L75.6777 40.7175C75.4818 40.6177 75.2905 40.5178 75.0946 40.427L75.0172 40.3907L74.4933 40.1502L74.3247 40.0776L73.8327 39.8733L73.7097 39.8234L73.1038 39.5964L72.9444 39.542L72.4615 39.3831L72.2929 39.3287C72.0834 39.2606 71.8738 39.197 71.6643 39.1426H71.6278L71.0675 39.0336L70.8898 38.9882L70.3842 38.8748L70.2338 38.843L69.5961 38.7205H69.4548L68.9401 38.5798L68.7533 38.5525L68.152 38.4799H68.1018C67.8877 38.4799 67.6691 38.4345 67.4504 38.4209H67.2727L66.7671 38.3891H66.594H65.9425H65.0906H64.5349H64.4301C64.216 38.3891 64.0019 38.4164 63.7878 38.439H63.6055L63.109 38.4935H62.9313C62.7172 38.5207 62.4758 38.548 62.2844 38.5843H62.2115L61.6375 38.6841L61.4553 38.7205L60.9405 38.8294L60.8039 38.8612H60.7538V23.3657C60.749 21.6085 60.0462 19.9246 58.7991 18.6821C57.5519 17.4395 55.8618 16.7393 54.0981 16.7345H47.4425V60.8198C47.4425 60.8198 47.4106 70.1244 54.1984 72.1668C50.2123 69.5343 49.7931 64.5053 49.7977 59.6261V57.1888C49.8296 56.3219 49.8387 55.4641 49.8205 54.638Z" fill="#FC4E4D"/>
<path fill-rule="evenodd" clip-rule="evenodd" d="M63.56 67.6553C59.9156 68.7174 61.592 65.2724 60.2709 65.3133C59.6195 65.3133 59.3598 64.8049 59.4646 64.1967C59.4646 64.1967 58.5535 63.9652 58.7539 62.8351C58.3804 62.7625 57.287 62.5355 57.1321 62.1543C56.9044 61.5915 58.0068 59.3901 56.6128 57.7516C55.4785 56.4218 55.4785 52.7998 55.7381 51.2294C58.2847 58.8682 66.5393 54.1161 67.537 60.3751C67.7465 61.6958 67.1953 64.6869 66.4619 65.6718C66.4619 65.6718 69.4913 64.2466 70.6894 62.2042C73.9967 56.5579 74.1835 67.6916 67.5324 70.601C63.8151 72.539 58.3621 72.1532 54.1984 72.1759C60.0932 76.4061 68.6258 77.8993 74.5844 73.3106C91.0071 59.1178 72.0971 38.144 58.8405 45.801C44.1716 54.2704 56.2438 73.4513 63.56 67.6689" fill="#FC4E4D"/>
<path fill-rule="evenodd" clip-rule="evenodd" d="M59.1185 53.2422C59.3476 54.7119 60.8473 53.7373 61.3919 53.1379C61.0791 53.8068 60.5977 54.3381 60.0175 54.6546C59.0364 54.9621 58.8333 54.2064 59.1185 53.2422Z" fill="#E4BBA6"/>
<path d="M48.641 105.979C48.6526 105.98 48.6644 105.978 48.6753 105.975C48.6862 105.971 48.696 105.965 48.704 105.958C48.712 105.95 48.7179 105.941 48.7213 105.931C48.7247 105.921 48.7255 105.911 48.7237 105.9V105.655C48.7237 103.901 48.7237 103.561 48.7237 103.21C48.7237 102.86 48.5937 102.63 48.1331 102.551C47.9654 102.525 47.7954 102.513 47.6252 102.514C47.4834 102.514 47.4067 102.514 47.4067 102.415C47.4067 102.316 47.4952 102.31 47.6783 102.31C48.3811 102.31 49.2021 102.342 49.5564 102.342C49.9108 102.342 50.6903 102.31 51.1982 102.31C51.3813 102.31 51.4699 102.31 51.4699 102.415C51.4699 102.52 51.3931 102.514 51.2337 102.514C51.1069 102.519 50.9806 102.531 50.8557 102.551C50.5073 102.609 50.401 102.808 50.3773 103.21C50.3537 103.613 50.3773 103.901 50.3773 105.655V107.69C50.3773 108.737 50.3773 109.663 50.4423 110.16C50.4836 110.48 50.5604 110.736 50.9502 110.783C51.1715 110.81 51.3943 110.825 51.6176 110.83C51.7593 110.83 51.8243 110.862 51.8243 110.919C51.8243 110.977 51.7239 111.034 51.5644 111.034C50.7199 111.034 49.8989 111.003 49.5328 111.003C49.1666 111.003 48.4107 111.034 47.9027 111.034C47.7197 111.034 47.6311 111.003 47.6311 110.919C47.6311 110.836 47.6842 110.83 47.8378 110.83C47.9967 110.829 48.155 110.813 48.3103 110.783C48.5701 110.736 48.6351 110.48 48.6882 110.145C48.7532 109.663 48.7532 108.747 48.7532 107.69V106.67C48.7532 106.66 48.7511 106.651 48.7468 106.642C48.7426 106.634 48.7364 106.626 48.7287 106.62C48.7209 106.613 48.7117 106.608 48.7017 106.605C48.6917 106.602 48.6811 106.601 48.6705 106.602H43.6918C43.6505 106.602 43.6151 106.602 43.6151 106.67V107.69C43.6151 108.737 43.6151 109.663 43.68 110.16C43.7155 110.48 43.7922 110.736 44.1879 110.783C44.4073 110.81 44.6281 110.826 44.8494 110.83C44.9911 110.83 45.0561 110.862 45.0561 110.919C45.0561 110.977 44.9557 111.034 44.7962 111.034C43.9517 111.034 43.1308 111.003 42.7646 111.003C42.3984 111.003 41.6484 111.034 41.1228 111.034C40.9574 111.034 40.8629 111.003 40.8629 110.919C40.8629 110.836 40.9161 110.83 41.0755 110.83C41.2325 110.829 41.3888 110.813 41.5421 110.783C41.8019 110.736 41.8669 110.48 41.9201 110.145C41.985 109.663 41.985 108.747 41.985 107.69V105.655C41.985 103.901 41.985 103.561 41.985 103.21C41.985 102.86 41.8492 102.63 41.3944 102.551C41.2267 102.526 41.0567 102.513 40.8865 102.514C40.7389 102.514 40.6621 102.514 40.6621 102.415C40.6621 102.316 40.7566 102.31 40.9338 102.31C41.6425 102.31 42.4634 102.342 42.8119 102.342C43.1603 102.342 43.9458 102.31 44.4537 102.31C44.6368 102.31 44.7254 102.31 44.7254 102.415C44.7254 102.52 44.6486 102.514 44.495 102.514C44.3682 102.518 44.2419 102.531 44.1171 102.551C43.7627 102.609 43.6564 102.808 43.6328 103.21C43.6092 103.613 43.6328 103.901 43.6328 105.655V105.9C43.6328 105.958 43.6682 105.979 43.7096 105.979H48.641Z" fill="#18191B"/>
<path d="M54.9432 108.147C54.8852 108.147 54.8589 108.147 54.8378 108.234L54.2108 109.776C54.1151 109.995 54.0564 110.227 54.037 110.464C54.037 110.67 54.1371 110.819 54.5006 110.819H54.6745C54.8115 110.819 54.8483 110.819 54.8483 110.906C54.8483 110.993 54.7798 111.019 54.6481 111.019C54.2793 111.019 53.7788 110.988 53.4206 110.988C53.2889 110.988 52.6514 111.019 52.0455 111.019C51.898 111.019 51.8242 111.019 51.8242 110.906C51.8242 110.793 51.8716 110.819 51.9665 110.819C52.0613 110.819 52.2352 110.819 52.3247 110.819C52.8516 110.752 53.0834 110.367 53.3152 109.791L56.2287 102.762C56.3709 102.434 56.4394 102.31 56.5553 102.31C56.6712 102.31 56.7292 102.413 56.8451 102.67C57.1243 103.297 58.9841 107.808 59.7269 109.55C60.1695 110.577 60.5067 110.731 60.749 110.788C60.9107 110.817 61.0746 110.832 61.239 110.834C61.3338 110.834 61.3918 110.834 61.3918 110.921C61.3918 111.009 61.2864 111.034 60.8649 111.034C60.4435 111.034 59.6005 111.034 58.668 111.034C58.4625 111.034 58.3203 111.034 58.3203 110.942C58.3203 110.85 58.3677 110.855 58.4836 110.839C58.5094 110.831 58.533 110.818 58.5528 110.8C58.5726 110.781 58.588 110.759 58.5981 110.735C58.6082 110.71 58.6125 110.684 58.611 110.658C58.6094 110.631 58.6019 110.606 58.589 110.582L57.6564 108.245C57.6492 108.221 57.6337 108.2 57.6126 108.186C57.5915 108.172 57.566 108.165 57.5405 108.168L54.9432 108.147ZM57.314 107.577C57.3667 107.577 57.3825 107.546 57.3667 107.51L56.313 104.725C56.313 104.679 56.313 104.622 56.255 104.622C56.1971 104.622 56.1971 104.679 56.1865 104.725L55.1328 107.5C55.1328 107.546 55.1328 107.577 55.1802 107.577H57.314Z" fill="#18191B"/>
<path d="M63.2456 105.656C63.2456 103.903 63.2456 103.563 63.2456 103.213C63.2456 102.862 63.0955 102.622 62.8286 102.564C62.6846 102.532 62.5372 102.517 62.3894 102.517C62.267 102.517 62.1892 102.517 62.1892 102.402C62.1892 102.287 62.2893 102.313 62.4839 102.313C62.9509 102.313 63.7238 102.344 64.0796 102.344C64.4354 102.344 65.1082 102.313 65.5752 102.313C65.7365 102.313 65.831 102.313 65.831 102.402C65.831 102.491 65.7587 102.517 65.6364 102.517C65.5132 102.52 65.3905 102.532 65.2694 102.554C64.9358 102.611 64.8413 102.81 64.8135 103.213C64.7857 103.616 64.8135 103.903 64.8135 105.656V107.691C64.8135 108.806 64.8135 109.721 64.8635 110.218C64.8969 110.527 64.9859 110.741 65.3528 110.783C65.5593 110.81 65.7672 110.826 65.9755 110.83C66.1145 110.83 66.1757 110.862 66.1757 110.919C66.1757 110.977 66.0756 111.034 65.9422 111.034C65.1304 111.034 64.3576 111.003 64.0296 111.003C63.7015 111.003 62.9732 111.034 62.4839 111.034C62.3227 111.034 62.2393 111.003 62.2393 110.919C62.2393 110.836 62.2893 110.83 62.4338 110.83C62.5816 110.829 62.7289 110.814 62.8731 110.783C63.1177 110.736 63.1956 110.537 63.2289 110.203C63.2901 109.721 63.2901 108.806 63.2901 107.691L63.2456 105.656Z" fill="#18191B"/>
<path d="M68.9752 105.637C68.9752 103.897 68.9752 103.559 68.9752 103.211C68.9752 102.863 68.8541 102.634 68.4525 102.556C68.2962 102.531 68.1379 102.519 67.9793 102.52C67.8473 102.52 67.7703 102.52 67.7703 102.421C67.7703 102.322 67.8583 102.317 68.0399 102.317C68.6836 102.317 69.4483 102.348 69.6904 102.348C70.103 102.348 71.0273 102.317 71.4014 102.317C72.1847 102.272 72.964 102.453 73.6351 102.837C73.8901 103.019 74.0972 103.255 74.2403 103.525C74.3834 103.795 74.4587 104.093 74.4604 104.395C74.4604 105.242 74.0863 106.021 72.8594 106.962C73.9597 108.245 74.774 109.263 75.4892 109.975C75.8372 110.371 76.3157 110.645 76.8482 110.754C76.9608 110.774 77.0748 110.786 77.1893 110.79C77.2883 110.79 77.3378 110.821 77.3378 110.879C77.3378 110.936 77.2498 110.993 77.1068 110.993H75.9514C75.5056 111.032 75.0569 110.957 74.653 110.775C74.1028 110.515 73.6737 109.975 73.0024 109.092C72.5183 108.463 71.9571 107.684 71.8031 107.533C71.7767 107.503 71.7427 107.48 71.7042 107.465C71.6658 107.45 71.6241 107.445 71.583 107.45H70.5266C70.4661 107.45 70.4331 107.45 70.4331 107.538V107.699C70.4331 108.764 70.4331 109.673 70.4881 110.151C70.5266 110.484 70.5982 110.738 70.9668 110.785C71.1483 110.785 71.4124 110.832 71.561 110.832C71.7095 110.832 71.704 110.863 71.704 110.92C71.704 110.977 71.6215 111.034 71.4619 111.034C70.7577 111.034 69.8609 111.003 69.6794 111.003C69.4978 111.003 68.6836 111.034 68.1994 111.034C68.0398 111.034 67.9573 111.003 67.9573 110.92C67.9573 110.837 68.0013 110.832 68.1499 110.832C68.2961 110.831 68.4418 110.815 68.5845 110.785C68.8266 110.738 68.8871 110.484 68.9366 110.151C68.9972 109.673 68.9972 108.764 68.9972 107.715L68.9752 105.637ZM70.4111 106.546C70.4111 106.671 70.4111 106.717 70.5156 106.749C70.816 106.83 71.1275 106.869 71.4399 106.863C71.7431 106.901 72.0506 106.833 72.3037 106.671C72.5588 106.458 72.7566 106.191 72.881 105.892C73.0053 105.593 73.0526 105.271 73.0189 104.951C73.0189 103.325 71.8746 102.873 71.1594 102.873C70.9436 102.866 70.7276 102.881 70.5156 102.92C70.4331 102.946 70.4111 102.987 70.4111 103.081V106.546Z" fill="#18191B"/>
</svg>
