<svg width="16" height="16" viewBox="0 0 16 16" fill="none" xmlns="http://www.w3.org/2000/svg">
<path d="M15.4783 8.54545H5.39125C5.10325 8.54545 4.86951 8.30109 4.86951 8C4.86951 7.69891 5.10325 7.45455 5.39125 7.45455H15.4783C15.7663 7.45455 16 7.69891 16 8C16 8.30109 15.7663 8.54545 15.4783 8.54545Z" fill="#18191B"/>
<path d="M8.17393 11.4545C8.04031 11.4545 7.90682 11.4015 7.80518 11.2945L5.02262 8.38552C4.81881 8.17232 4.81881 7.82688 5.02262 7.61382L7.80518 4.70479C8.00898 4.49172 8.3394 4.49172 8.54333 4.70479C8.74713 4.91785 8.74713 5.26329 8.54333 5.47636L6.1294 8L8.54333 10.5236C8.74713 10.7367 8.74713 11.0821 8.54333 11.2952C8.44104 11.4015 8.30743 11.4545 8.17393 11.4545Z" fill="#18191B"/>
<path d="M7.6522 16C3.43307 16 0 12.4109 0 8C0 3.58911 3.43307 0 7.6522 0C10.818 0 13.6132 1.99124 14.7742 5.07352C14.88 5.35344 14.7478 5.66985 14.48 5.78104C14.2121 5.89024 13.9095 5.75414 13.8031 5.47276C12.8007 2.81089 10.3861 1.0909 7.6522 1.0909C4.00831 1.0909 1.04348 4.19063 1.04348 8C1.04348 11.8094 4.00831 14.9091 7.6522 14.9091C10.3861 14.9091 12.8007 13.1891 13.8031 10.528C13.9088 10.2465 14.2115 10.1106 14.48 10.2196C14.7478 10.3302 14.88 10.6472 14.7742 10.9273C13.6132 14.0088 10.818 16 7.6522 16Z" fill="#18191B"/>
</svg>
