<svg width="58" height="65" viewBox="0 0 58 65" fill="none" xmlns="http://www.w3.org/2000/svg">
<path d="M45.3317 32.5957H43.418V65H45.3317V32.5957Z" fill="#FC4E4D"/>
<path d="M40.5909 42.8017H38.6772V65H40.5909V42.8017Z" fill="#FC4E4D"/>
<path d="M53.3145 52.7362L52.5733 54.5006C54.1159 55.1484 55.1126 56.6484 55.1126 58.3218V65H57.0263V58.3218C57.0265 55.8756 55.5694 53.6833 53.3145 52.7362Z" fill="#FC4E4D"/>
<path d="M27.8754 0C15.6352 0 5.67709 9.95808 5.67709 22.1983V30.1721C5.67709 38.9566 12.677 46.1485 21.4327 46.5469V47.5422L4.29838 52.5238C1.72732 53.3047 0 55.6349 0 58.3219V65H1.91369V58.3218C1.91369 56.4832 3.09562 54.8889 4.84377 54.358L23.3466 48.9786V44.0369C24.9212 44.7588 26.6709 45.1619 28.5134 45.1619C30.3076 45.1619 32.0662 44.7759 33.6803 44.0376V65H35.594V29.9246L35.5771 29.8363C34.2016 22.6015 27.8508 17.3504 20.4761 17.3504H16.0748V32.7233C16.0748 36.9531 18.1976 40.6958 21.433 42.9441V44.6316C13.7328 44.2357 7.59103 37.9015 7.59103 30.1721V22.1983C7.59103 11.0133 16.6907 1.91369 27.8756 1.91369C39.0606 1.91369 48.1602 11.0133 48.1602 22.1983V63.0864H48.0964V65H50.0737V22.1983C50.0736 9.95808 40.1155 0 27.8754 0ZM17.9882 32.7233V19.264H20.476C26.9031 19.264 32.442 23.8183 33.6802 30.1066V41.8928C32.1075 42.781 30.3319 43.2482 28.5133 43.2482C22.7098 43.2482 17.9882 38.5267 17.9882 32.7233Z" fill="#FC4E4D"/>
</svg>
