<svg width="24" height="20" viewBox="0 0 24 20" fill="none" xmlns="http://www.w3.org/2000/svg">
<path d="M20.5851 3.35903H18.1454L16.7985 1.25964C16.2902 0.472364 15.4007 0 14.4858 0H8.8948C7.97991 0 7.09043 0.472364 6.58215 1.25964L5.23522 3.35903H2.79551C1.24527 3.35903 0 4.64491 0 6.2457V16.4278C0 18.0285 1.24527 19.3144 2.79551 19.3144H20.5851C22.1353 19.3144 23.3806 18.0285 23.3806 16.4278V6.2457C23.3806 4.64491 22.1353 3.35903 20.5851 3.35903ZM11.6903 16.9526C8.20863 16.9526 5.38771 14.0397 5.38771 10.4445C5.38771 6.84927 8.20863 3.96261 11.6903 3.96261C15.172 3.96261 17.9929 6.87551 17.9929 10.4707C17.9929 14.0397 15.172 16.9526 11.6903 16.9526ZM20.2293 7.4266C20.2039 7.4266 20.1785 7.4266 20.1277 7.4266H19.1111C18.6537 7.40036 18.2979 7.00673 18.3233 6.53436C18.3487 6.08824 18.6791 5.74709 19.1111 5.72085H20.1277C20.5851 5.6946 20.9663 6.062 20.9917 6.53436C21.0171 7.00673 20.6868 7.40036 20.2293 7.4266Z" fill="white"/>
<path d="M11.6903 6.84927C9.75887 6.84927 8.18322 8.4763 8.18322 10.4707C8.18322 12.4651 9.75887 14.0659 11.6903 14.0659C13.6217 14.0659 15.1974 12.4389 15.1974 10.4445C15.1974 8.45006 13.6217 6.84927 11.6903 6.84927Z" fill="white"/>
</svg>
