<svg width="65" height="65" viewBox="0 0 65 65" fill="none" xmlns="http://www.w3.org/2000/svg">
<path d="M39.7575 26.4622L29.9861 35.6866L25.2965 30.8646C24.7767 30.3296 23.9206 30.3174 23.3859 30.8371C22.8507 31.3572 22.8385 32.2123 23.3584 32.7472L28.9828 38.518C29.5054 39.0434 30.3498 39.0614 30.894 38.5582L41.6416 28.4263C41.9026 28.1803 42.0551 27.8406 42.0652 27.4823C42.0752 27.1241 41.9423 26.7765 41.6956 26.5161C41.1726 25.9727 40.3102 25.9489 39.7575 26.4622Z" fill="#FC4E4D"/>
<path d="M32.5066 12.266C21.3392 12.266 12.2587 21.3417 12.2587 32.5033C12.2587 43.6654 21.3392 52.7411 32.5066 52.7411C43.6746 52.7411 52.7551 43.6654 52.7551 32.5033C52.7551 21.3417 43.6746 12.266 32.5066 12.266ZM32.5066 50.032C22.83 50.032 14.9693 42.1616 14.9693 32.5033C14.9693 22.845 22.83 14.9752 32.5066 14.9752C42.1928 14.9752 50.0445 22.8228 50.0445 32.5033C50.0445 42.1838 42.1928 50.032 32.5066 50.032Z" fill="#FC4E4D"/>
<path d="M60.3717 25.0531L60.8191 17.0203C60.8503 16.4811 60.557 15.9747 60.0737 15.7334L52.9176 12.1168L49.2991 4.96448C49.0529 4.48561 48.5494 4.19406 48.0115 4.21945L39.9608 4.65335L33.252 0.223427C32.7999 -0.0744757 32.2139 -0.0744757 31.7612 0.223427L25.0525 4.65335L17.016 4.20623C16.476 4.17448 15.9699 4.46762 15.7285 4.95125L12.1094 12.1036L4.95385 15.7202C4.4742 15.9657 4.18302 16.4689 4.20844 17.0071L4.65526 25.0399L0.223545 31.7451C-0.0745149 32.1969 -0.0745149 32.7827 0.223545 33.2351L4.64202 39.9535L4.19467 47.9863C4.16344 48.5255 4.4562 49.0319 4.94008 49.2732L12.0962 52.8898L15.7147 60.0421C15.9603 60.5215 16.4638 60.8126 17.0022 60.7872L25.0392 60.34L31.748 64.7694C32.1974 65.0769 32.7893 65.0769 33.2388 64.7694L39.9475 60.34L47.9845 60.7872C48.524 60.8184 49.0301 60.5252 49.2721 60.0421L52.8906 52.8898L60.0467 49.2732C60.5258 49.0271 60.8175 48.5245 60.7921 47.9863L60.3447 39.9535L64.7765 33.2483C65.0745 32.7964 65.0745 32.2102 64.7765 31.7583L60.3717 25.0531ZM57.8507 38.8429C57.6855 39.0852 57.6087 39.3768 57.6341 39.6694L58.054 47.2683L51.2912 50.6817C51.0334 50.8108 50.8243 51.0204 50.6951 51.2781L47.2794 58.0372L39.6765 57.6176C39.3853 57.6071 39.0978 57.6822 38.8495 57.8341L32.5066 62.02L26.1642 57.8341C25.944 57.6854 25.6846 57.6049 25.4188 57.6039H25.3511L17.7476 58.024L14.3324 51.2643C14.2032 51.0066 13.9941 50.7976 13.7358 50.6685L6.95927 47.2683L7.37962 39.6694C7.39021 39.3784 7.3145 39.091 7.16256 38.8429L2.9749 32.5033L7.16256 26.1637C7.32827 25.9219 7.40503 25.6298 7.37962 25.3378L6.95927 17.7383L13.7225 14.3249C13.9803 14.1958 14.1895 13.9868 14.3186 13.7291L17.7339 6.96937L25.3373 7.3895C25.628 7.39956 25.9154 7.32442 26.1642 7.17256L32.5066 2.9871L38.8495 7.17256C39.092 7.33818 39.3842 7.4149 39.6765 7.3895L47.2794 6.96937L50.6951 13.7291C50.8243 13.9868 51.0334 14.1958 51.2912 14.3249L58.054 17.7383L57.6341 25.3378C57.6236 25.6283 57.6993 25.9156 57.8507 26.1637L62.0389 32.5033L57.8507 38.8429Z" fill="#FC4E4D"/>
</svg>
