<svg width="53" height="65" viewBox="0 0 53 65" fill="none" xmlns="http://www.w3.org/2000/svg">
<path d="M5.4816 50.3959C6.95673 51.116 8.52607 51.6247 10.1431 51.9069C11.0835 53.559 12.3811 54.7848 13.9825 55.546C12.8794 57.0201 11.6845 58.0414 10.4202 58.5848L10.4161 58.5866L10.4144 58.5874C10.016 58.7581 9.75769 59.1498 9.75769 59.5832V63.9166C9.75769 64.5149 10.2428 64.9999 10.841 64.9999H41.1743C41.7726 64.9999 42.2576 64.5148 42.2576 63.9166V59.5832C42.2571 59.1319 41.9769 58.7281 41.5543 58.5698C40.1468 58.0416 38.8623 57.0734 37.7233 55.6847C39.4672 54.938 40.8715 53.6641 41.8717 51.9066C43.4888 51.6244 45.0581 51.1158 46.5332 50.3956C50.1146 48.6056 52.0075 45.7887 52.0075 42.2501V22.7745C52.0355 22.1117 52.2613 13.6671 46.0934 7.18323C41.5597 2.41675 34.8017 0 26.0078 0C17.2139 0 10.4558 2.41675 5.92183 7.18323C-0.245948 13.6671 -0.0202613 22.1119 0.00774562 22.7745V42.2499C0.00788158 45.7886 1.90066 48.6056 5.4816 50.3959ZM40.0911 62.8333H11.9244V60.6665H40.0911V62.8333ZM37.4125 58.4999H14.2807C14.9713 57.813 15.5941 57.0611 16.1406 56.2548C16.5533 56.3366 16.9704 56.3943 17.3899 56.4273C18.9489 56.5445 20.5162 56.3764 22.0149 55.9317C22.583 55.7436 22.8908 55.1307 22.7027 54.5627C22.6429 54.382 22.5365 54.2202 22.3941 54.0936C21.1545 53.0039 20.035 51.7844 19.0552 50.4562C19.7189 48.6673 20.2763 46.8409 20.7246 44.9862C21.7283 45.3265 22.7812 45.5001 23.8411 45.5H28.1744C29.1494 45.5007 30.1189 45.3546 31.0504 45.0667C31.4385 47.0349 31.9764 48.9705 32.6599 50.8566C31.7516 52.029 30.7343 53.1127 29.6215 54.0931C29.1744 54.4906 29.1341 55.1754 29.5317 55.6224C29.6581 55.7648 29.8199 55.8711 30.0007 55.9311C31.1951 56.2873 32.4353 56.4669 33.6816 56.4639C33.9865 56.4639 34.3026 56.4526 34.6258 56.4266C34.9176 56.4034 35.2031 56.3686 35.4829 56.3238C36.0495 57.1137 36.6961 57.8429 37.4125 58.4999ZM34.1712 48.5724C33.7254 47.1264 33.362 45.6563 33.0827 44.1691C34.3561 43.4241 35.4453 42.4018 36.2695 41.1782C36.2559 41.6251 36.221 42.1008 36.1583 42.6C35.8907 44.7011 35.2157 46.7298 34.1712 48.5724ZM35.7578 35.75C35.7532 39.9362 32.3606 43.3288 28.1744 43.3334H23.8411C19.6549 43.3288 16.2624 39.9362 16.2577 35.75V25.8686C18.5286 25.3053 20.4604 22.9337 22.0115 18.7971C22.3376 17.9274 22.6161 17.0617 22.8498 16.2552C23.1772 17.0188 23.5652 17.755 24.0104 18.4567C25.7893 21.2522 29.2543 24.5572 35.7576 24.889L35.7578 35.75ZM18.7224 44.0439C18.445 45.2198 18.071 46.6262 17.5878 48.0982C16.6867 46.3838 16.1004 44.5218 15.8568 42.6003C15.7941 42.1011 15.7596 41.6254 15.7456 41.1785C16.5237 42.3337 17.5383 43.3104 18.7224 44.0439ZM7.50993 8.65713C11.6195 4.35032 17.843 2.16659 26.0078 2.16659C34.1727 2.16659 40.3962 4.35032 44.5057 8.65713C50.1552 14.5781 49.8465 22.6171 49.8428 22.6959C49.8419 22.7138 49.8414 22.732 49.8414 22.7501V42.2499C49.8414 44.9345 48.4196 47.0151 45.6138 48.4338C44.7897 48.8438 43.928 49.1738 43.0408 49.419C43.6885 47.6006 44.4244 44.5544 44.4244 40.0834C44.4244 39.485 43.9393 39.0001 43.3411 39.0001C42.7428 39.0001 42.2578 39.4851 42.2578 40.0834C42.2578 47.1667 40.2891 50.2912 40.2731 50.3157C40.2481 50.3531 40.2256 50.3919 40.2054 50.4322C38.3299 54.1832 34.7809 54.4822 32.5827 54.2517C36.665 50.0069 37.9709 45.7231 38.323 42.7456C38.692 39.6264 38.1187 37.3281 37.9244 36.6687V23.8334C37.9244 23.235 37.4393 22.7501 36.8411 22.7501C31.8775 22.7501 28.1903 20.9372 25.8825 17.3623C24.8111 15.6822 24.1134 13.7918 23.8366 11.8185C23.7824 11.2226 23.2554 10.7836 22.6596 10.8377C22.169 10.8823 21.7704 11.2524 21.6892 11.7383C21.1644 14.876 18.8412 23.8334 15.1746 23.8334C14.5762 23.8334 14.0913 24.3184 14.0913 24.9166V36.6687C13.897 37.3281 13.3235 39.6264 13.6927 42.7456C14.0448 45.721 15.3489 50.0011 19.4248 54.2425C18.8062 54.3064 18.1832 54.3145 17.5632 54.2671C14.9123 54.055 12.9769 52.764 11.8104 50.4315C11.7916 50.3934 11.7704 50.3566 11.747 50.3211C11.727 50.2911 9.7581 47.1665 9.7581 40.0832C9.7581 39.4849 9.27301 38.9999 8.6748 38.9999C8.07646 38.9999 7.59151 39.485 7.59151 40.0832C7.59151 44.5556 8.32784 47.6025 8.97649 49.4207C8.10637 49.1795 7.26086 48.8573 6.45097 48.458C3.61343 47.0393 2.17475 44.9504 2.17475 42.2498V22.7499C2.17475 22.7329 2.17475 22.7143 2.17339 22.6974C2.16945 22.6171 1.86055 14.5781 7.50993 8.65713Z" fill="#FC4E4D"/>
</svg>
