<svg style="display: none;">
	<symbol id="arrow" viewBox="0 0 24 8">
		<path
			d="M23.3536 4.35355C23.5488 4.15829 23.5488 3.84171 23.3536 3.64645L20.1716 0.464466C19.9763 0.269204 19.6597 0.269204 19.4645 0.464466C19.2692 0.659728 19.2692 0.976311 19.4645 1.17157L22.2929 4L19.4645 6.82843C19.2692 7.02369 19.2692 7.34027 19.4645 7.53553C19.6597 7.7308 19.9763 7.7308 20.1716 7.53553L23.3536 4.35355ZM0 4.5H23V3.5H0V4.5Z" />
	</symbol>

	<symbol id="card" viewBox="0 0 15 18">
		<path
			d="M14.6223 17.4084L13.338 4.38039C13.311 4.10765 13.0952 3.90056 12.8378 3.90056H10.4239V3.3143C10.4239 1.48686 9.02809 0 7.31256 0C5.59691 0 4.2011 1.48686 4.2011 3.3143V3.90056H1.78723C1.52977 3.90056 1.31396 4.10765 1.28702 4.38039L0.0027305 17.4084C-0.0120952 17.5593 0.0339289 17.71 0.1292 17.8228C0.2246 17.9356 0.36048 18 0.502936 18H14.1219C14.2645 18 14.4004 17.9356 14.4957 17.8228C14.5912 17.71 14.6371 17.5593 14.6223 17.4084ZM5.20693 3.3143C5.20693 2.07765 6.15152 1.07144 7.31256 1.07144C8.47348 1.07144 9.41807 2.07765 9.41807 3.3143V3.90056H5.20693V3.3143ZM1.06141 16.9286L2.24012 4.972H4.2011V6.15262C4.2011 6.44843 4.42632 6.68834 4.70402 6.68834C4.98171 6.68834 5.20693 6.44843 5.20693 6.15262V4.972H9.41807V6.15262C9.41807 6.44843 9.64329 6.68834 9.92098 6.68834C10.1987 6.68834 10.4239 6.44843 10.4239 6.15262V4.972H12.3849L13.5636 16.9286H1.06141Z" />
	</symbol>

	<symbol id="arrow-down" viewBox="0 0 8 5" width="8" height="5">
		<path
			d="M3.64645 4.35355C3.84171 4.54882 4.15829 4.54882 4.35355 4.35355L7.53553 1.17157C7.7308 0.976311 7.7308 0.659728 7.53553 0.464466C7.34027 0.269204 7.02369 0.269204 6.82843 0.464466L4 3.29289L1.17157 0.464466C0.976311 0.269204 0.659728 0.269204 0.464466 0.464466C0.269204 0.659728 0.269204 0.976311 0.464466 1.17157L3.64645 4.35355ZM3.5 3V4H4.5V3H3.5Z"
			fill="#888584" fill-opacity="0.38" />
	</symbol>

  <symbol id="facebook" viewBox="0 0 9 17">
  <path d="M5.54348 5.84375V3.71875C5.54348 3.13225 6.04017 2.65625 6.65217 2.65625H7.76087V0H5.54348C3.70637 0 2.21739 1.42694 2.21739 3.1875V5.84375H0V8.5H2.21739V17H5.54348V8.5H7.76087L8.86957 5.84375H5.54348Z"/>
  </symbol>

  <symbol id="youtube" viewBox="0 0 19 13">
  <path d="M18.3025 2.03419C18.0871 1.23876 17.4559 0.61173 16.6554 0.397545C15.1931 0 9.34354 0 9.34354 0C9.34354 0 3.49422 0 2.03186 0.382473C1.24679 0.596431 0.600182 1.23887 0.384837 2.03419C0 3.48702 0 6.5 0 6.5C0 6.5 0 9.52817 0.384837 10.9658C0.60041 11.7611 1.23139 12.3882 2.03197 12.6023C3.50962 13 9.34377 13 9.34377 13C9.34377 13 15.1931 13 16.6554 12.6175C17.456 12.4035 18.0871 11.7764 18.3027 10.9811C18.6874 9.52817 18.6874 6.5153 18.6874 6.5153C18.6874 6.5153 18.7028 3.48702 18.3025 2.03419ZM7.48117 9.2835V3.7165L12.3454 6.5L7.48117 9.2835Z"/>
  </symbol>

  <symbol id="instagram" viewBox="0 0 17 17">
    <path d="M11.6875 0H5.3125C2.37894 0 0 2.37894 0 5.3125V11.6875C0 14.6211 2.37894 17 5.3125 17H11.6875C14.6211 17 17 14.6211 17 11.6875V5.3125C17 2.37894 14.6211 0 11.6875 0ZM15.4062 11.6875C15.4062 13.7381 13.7381 15.4062 11.6875 15.4062H5.3125C3.26188 15.4062 1.59375 13.7381 1.59375 11.6875V5.3125C1.59375 3.26188 3.26188 1.59375 5.3125 1.59375H11.6875C13.7381 1.59375 15.4062 3.26188 15.4062 5.3125V11.6875Z"/>
    <path d="M8.5 4.25C6.15294 4.25 4.25 6.15294 4.25 8.5C4.25 10.8471 6.15294 12.75 8.5 12.75C10.8471 12.75 12.75 10.8471 12.75 8.5C12.75 6.15294 10.8471 4.25 8.5 4.25ZM8.5 11.1562C7.03587 11.1562 5.84375 9.96412 5.84375 8.5C5.84375 7.03481 7.03587 5.84375 8.5 5.84375C9.96412 5.84375 11.1562 7.03481 11.1562 8.5C11.1562 9.96412 9.96412 11.1562 8.5 11.1562Z"/>
    <path d="M13.0688 4.49756C13.3815 4.49756 13.6351 4.24402 13.6351 3.93125C13.6351 3.61848 13.3815 3.36494 13.0688 3.36494C12.756 3.36494 12.5024 3.61848 12.5024 3.93125C12.5024 4.24402 12.756 4.49756 13.0688 4.49756Z"/>
  </symbol>

	
</svg>