<svg width="19" height="15" viewBox="0 0 19 15" fill="none" xmlns="http://www.w3.org/2000/svg">
<path d="M18.1888 1.77996C17.546 2.065 16.8545 2.25778 16.1293 2.34388C16.8697 1.90028 17.4379 1.19839 17.7061 0.360672C17.0133 0.771645 16.2457 1.06978 15.4293 1.23048C14.7753 0.533939 13.8435 0.0986328 12.8116 0.0986328C10.8319 0.0986328 9.22622 1.70429 9.22622 3.68402C9.22622 3.96505 9.25804 4.23858 9.31954 4.50116C6.33978 4.35169 3.69773 2.92438 1.92923 0.754532C1.62067 1.28396 1.44366 1.90028 1.44366 2.55725C1.44366 3.80087 2.0771 4.89876 3.03862 5.54156C2.45117 5.52311 1.89795 5.36188 1.41478 5.09262C1.41451 5.10786 1.41451 5.1231 1.41451 5.13807C1.41451 6.87528 2.65091 8.32425 4.29079 8.65341C3.99025 8.73576 3.67286 8.77934 3.34638 8.77934C3.11483 8.77934 2.89049 8.75715 2.67177 8.71544C3.12793 10.1395 4.45176 11.1762 6.02105 11.2053C4.79375 12.1671 3.24798 12.7401 1.56773 12.7401C1.27895 12.7401 0.992845 12.7233 0.712891 12.6899C2.29876 13.7076 4.18384 14.3009 6.20849 14.3009C12.8033 14.3009 16.4098 8.83764 16.4098 4.09927C16.4098 3.94392 16.4064 3.78911 16.3994 3.63563C17.1005 3.13026 17.7083 2.49896 18.1888 1.77996Z" fill="#F1F2F2"/>
</svg>
