<svg width="14" height="17" viewBox="0 0 14 17" fill="none" xmlns="http://www.w3.org/2000/svg">
<path d="M10.294 8.21473C10.0641 8.50425 9.80578 8.77152 9.50912 9.01275C11.2025 9.9841 12.3457 11.8103 12.3457 13.8985C12.3457 15.0268 9.87351 15.9107 6.71752 15.9107C3.56153 15.9107 1.08932 15.0268 1.08932 13.8985C1.08932 11.8103 2.23254 9.9841 3.92592 9.01275C3.62929 8.77152 3.371 8.50428 3.14105 8.21473C1.25527 9.4056 0 11.5081 0 13.8985C0 14.6226 0.396496 15.6317 2.28551 16.3273C3.46383 16.7611 5.03781 17 6.71756 17C8.3973 17 9.97129 16.7611 11.1496 16.3273C13.0386 15.6317 13.4351 14.6226 13.4351 13.8985C13.435 11.5081 12.1798 9.4056 10.294 8.21473Z" fill="#E0AF96"/>
<path d="M6.71748 8.93252C8.83455 8.93252 10.4648 6.88612 10.4648 4.46628C10.4648 2.04532 8.83373 0 6.71748 0C4.60042 0 2.97018 2.0464 2.97018 4.46624C2.97018 6.8872 4.60127 8.93252 6.71748 8.93252ZM6.71748 1.08932C8.18307 1.08932 9.37546 2.60419 9.37546 4.46624C9.37546 6.32829 8.18307 7.84316 6.71748 7.84316C5.25189 7.84316 4.0595 6.32829 4.0595 4.46624C4.0595 2.60419 5.25189 1.08932 6.71748 1.08932Z" fill="#E0AF96"/>
</svg>
