<svg width="19" height="13" viewBox="0 0 19 13" fill="none" xmlns="http://www.w3.org/2000/svg">
<path d="M18.3025 2.03419C18.0871 1.23876 17.4559 0.61173 16.6554 0.397545C15.1931 0 9.34354 0 9.34354 0C9.34354 0 3.49422 0 2.03186 0.382473C1.24679 0.596431 0.600182 1.23887 0.384837 2.03419C0 3.48702 0 6.5 0 6.5C0 6.5 0 9.52817 0.384837 10.9658C0.60041 11.7611 1.23139 12.3882 2.03197 12.6023C3.50962 13 9.34377 13 9.34377 13C9.34377 13 15.1931 13 16.6554 12.6175C17.456 12.4035 18.0871 11.7764 18.3027 10.9811C18.6874 9.52817 18.6874 6.5153 18.6874 6.5153C18.6874 6.5153 18.7028 3.48702 18.3025 2.03419ZM7.48117 9.2835V3.7165L12.3454 6.5L7.48117 9.2835Z" fill="#D38F6B"/>
</svg>
