<svg width="22" height="22" viewBox="0 0 22 22" fill="none" xmlns="http://www.w3.org/2000/svg">
<path d="M21.7203 20.3696L17.2681 15.9175C20.4103 12.0945 20.1965 6.4193 16.626 2.84879C12.8276 -0.949597 6.64718 -0.949597 2.84879 2.84879C-0.949597 6.64718 -0.949597 12.8276 2.84879 16.6259C6.41835 20.1955 12.0928 20.4116 15.9175 17.2681L20.3696 21.7203C20.7426 22.0932 21.3473 22.0932 21.7202 21.7203C22.0932 21.3473 22.0932 20.7426 21.7203 20.3696ZM15.2753 15.2753C12.2217 18.3289 7.25309 18.3289 4.19944 15.2753C1.1458 12.2217 1.1458 7.25304 4.19944 4.19939C7.25299 1.14589 12.2216 1.14565 15.2753 4.19939C18.329 7.25304 18.329 12.2217 15.2753 15.2753Z" fill="white"/>
<path d="M14.4135 8.7823H10.6924V5.0612C10.6924 4.53374 10.2648 4.10615 9.73735 4.10615C9.20988 4.10615 8.7823 4.53374 8.7823 5.0612V8.7823H5.0612C4.53374 8.7823 4.10615 9.20988 4.10615 9.73735C4.10615 10.2648 4.53374 10.6924 5.0612 10.6924H8.7823V14.4135C8.7823 14.941 9.20988 15.3685 9.73735 15.3685C10.2648 15.3685 10.6924 14.941 10.6924 14.4135V10.6924H14.4135C14.941 10.6924 15.3685 10.2648 15.3685 9.73735C15.3685 9.20988 14.941 8.7823 14.4135 8.7823Z" fill="white"/>
</svg>
