<svg width="32" height="47" viewBox="0 0 32 47" fill="none" xmlns="http://www.w3.org/2000/svg">
<path fill-rule="evenodd" clip-rule="evenodd" d="M10.5846 26.8127V11.197H13.1097C13.7787 11.1991 14.4198 11.463 14.8929 11.931C15.366 12.399 15.6327 13.0331 15.6348 13.695V23.2267C14.2809 23.7049 13.0308 24.4324 11.9507 25.3709L11.8781 25.4347L11.8028 25.5012L11.7302 25.5677C11.706 25.5917 11.6817 25.6129 11.6602 25.6369L11.5876 25.7034L11.5177 25.7726L11.4451 25.8417L11.3752 25.9135L11.308 25.9827L11.238 26.0545C11.2165 26.0785 11.1923 26.1024 11.1708 26.129L11.1036 26.2009C11.0794 26.2248 11.0579 26.2514 11.0363 26.2753L10.9691 26.3498L10.9046 26.4243L10.84 26.5015C10.8185 26.5281 10.7943 26.552 10.7755 26.5786L10.711 26.6558L10.6464 26.7356L10.5846 26.8127V26.8127ZM10.5846 32.0242V28.6776L10.6626 28.5791L10.6841 28.5552L10.7432 28.4807L10.7567 28.4647L10.8185 28.3902L10.84 28.3636L11.0014 28.1748L11.0283 28.1455L11.0848 28.079L11.1063 28.0551L11.2757 27.8662L11.2918 27.8502L11.359 27.7784L11.3859 27.7465L11.4478 27.68L11.4693 27.6587C11.4962 27.6267 11.5258 27.5975 11.5527 27.5682L11.6414 27.4751L11.7194 27.3953L11.8054 27.3075L11.9883 27.1293L12.0663 27.0548H12.0824L12.2707 26.8792L12.3648 26.7968C13.745 25.5297 15.3836 24.57 17.1703 23.9822H17.208L17.4258 23.9184H17.4661L17.6893 23.8572H17.7216L18.0174 23.6763H18.0336L18.2675 23.6231H18.2837L18.5203 23.5752H18.5499L18.7838 23.5353H18.8161L19.0447 23.5007H19.085L19.3136 23.4714H19.3459C19.4266 23.4714 19.5045 23.4528 19.5852 23.4475H19.5987L19.8434 23.4289H19.8595H20.1015H20.1311H20.3678H20.677H20.911H20.9432L21.188 23.4422L21.4381 23.4608C21.5214 23.4608 21.6048 23.4768 21.6855 23.4847H21.7177L21.9544 23.514H21.9947L22.2314 23.5512H22.2663L22.5057 23.5965H22.5406L22.7826 23.6497H22.8068L23.0489 23.7082H23.065L23.3124 23.7747H23.3447L23.584 23.8439H23.619L23.8556 23.921L23.8986 23.937L24.1353 24.0194H24.1702L24.415 24.1126H24.4338L24.6839 24.2136L24.9313 24.3227H24.9636L25.2002 24.4344L25.2432 24.4557L25.4772 24.5728L25.5148 24.5914L25.7488 24.7164L25.7918 24.7404L26.0285 24.8734H26.0527L26.3054 25.025C34.7118 30.1593 32.3722 46.0863 19.8165 46.3709C13.7336 46.5092 8.10515 41.7288 7.74481 35.3362V27.1027C7.74871 26.4848 7.60218 25.875 7.31759 25.3249C7.03301 24.7748 6.61874 24.3006 6.10979 23.9423C6.6232 23.5886 7.04282 23.1176 7.33306 22.5693C7.6233 22.0209 7.77561 21.4115 7.77707 20.7926V9.90945H7.74212V4.85497C7.79859 1.72651 10.4878 0 10.4878 0C6.47552 1.18647 6.37333 5.75945 6.37333 5.75945V20.8005C6.37049 21.4513 6.10771 22.0747 5.64226 22.5346C5.1768 22.9946 4.54643 23.2538 3.88854 23.2559H1.40643V9.90945H0V37.757H1.40375V24.6446H3.88585C4.54398 24.6474 5.17436 24.9073 5.63973 25.3677C6.10511 25.828 6.36781 26.4516 6.37064 27.1027V35.6474C6.37064 35.839 6.37064 36.0305 6.37064 36.2194C6.37064 36.4083 6.39484 36.5945 6.41636 36.778C6.43518 36.9616 6.46207 37.1451 6.49165 37.3101C6.52123 37.491 6.55619 37.6692 6.59653 37.8421C6.59653 37.8794 6.61535 37.9193 6.62342 37.9592C8.26381 44.8758 17.0305 48.5789 23.8529 46.3549C24.0143 46.3017 24.1756 46.2459 24.3343 46.1873C24.4929 46.1262 24.6516 46.065 24.8103 45.9985L24.9824 45.9187L25.2782 45.7883C25.4342 45.7138 25.5848 45.6367 25.738 45.5569C25.8886 45.4771 26.0392 45.3919 26.1871 45.3041C28.0852 44.1785 29.6096 42.529 30.5732 40.5583C30.6619 40.38 30.748 40.1965 30.8421 40.0102C30.9362 39.824 31.0061 39.6351 31.0814 39.4409C31.1567 39.2467 31.2293 39.0472 31.2992 38.845C31.3691 38.6429 31.4337 38.438 31.4955 38.2279C31.5574 38.0177 31.6166 37.8022 31.6703 37.5814C31.9992 36.1115 32.0827 34.5982 31.9177 33.1016C31.9177 32.9419 31.8855 32.7823 31.8666 32.628L31.8505 32.4924C31.8344 32.37 31.8156 32.2503 31.7967 32.1306L31.7806 32.0188C31.7537 31.8672 31.7268 31.7182 31.6945 31.5692C31.6945 31.54 31.6811 31.5107 31.6757 31.4788L31.595 31.1223L31.5628 30.9973C31.5305 30.8696 31.4955 30.7313 31.4606 30.6195L31.4633 30.5929C31.4229 30.4519 31.3799 30.3269 31.3342 30.1806L31.2939 30.0662C31.2562 29.9625 31.2186 29.856 31.1809 29.755L31.1406 29.6512C31.0904 29.5182 31.0366 29.3878 30.9792 29.2601L30.955 29.2016C30.9066 29.0925 30.8555 28.9835 30.8044 28.8771C30.7856 28.8425 30.7695 28.8052 30.7506 28.7707C30.6995 28.6669 30.6485 28.5658 30.5947 28.4674L30.5597 28.3982C30.4952 28.2794 30.4279 28.1623 30.358 28.0471L30.3042 27.9566C30.2505 27.8688 30.194 27.7784 30.1375 27.6906C30.1187 27.6587 30.0972 27.6268 30.0757 27.5948C30.0031 27.4831 29.9278 27.374 29.8498 27.265L29.8283 27.2384C29.7583 27.1399 29.6857 27.0415 29.6104 26.9457L29.5405 26.8553L29.3415 26.6132L29.2824 26.544C29.199 26.4456 29.1129 26.3498 29.0134 26.2541L28.9489 26.1849L28.7365 25.9641L28.6558 25.8843C28.567 25.7992 28.481 25.714 28.3869 25.6316L28.3707 25.6156C28.2757 25.5269 28.1789 25.4382 28.0803 25.3496L27.9969 25.2777C27.9189 25.2112 27.841 25.1501 27.763 25.0862L27.6877 25.0277C27.5873 24.9479 27.4851 24.8707 27.3811 24.7962L27.3193 24.751L27.0503 24.5728L26.9562 24.5089L26.6739 24.328L26.6308 24.3014C26.5206 24.2323 26.4103 24.1684 26.3001 24.1046L26.2086 24.054L25.9397 23.913L25.8483 23.8651C25.7327 23.8066 25.6197 23.7481 25.5041 23.6949L25.4584 23.6736L25.1491 23.5326L25.0496 23.4901L24.7592 23.3703L24.6866 23.3411L24.3289 23.2081L24.2348 23.1761L23.9497 23.083L23.8502 23.0511C23.7265 23.0112 23.6028 22.974 23.4791 22.942H23.4576L23.1268 22.8782L23.022 22.8516L22.7235 22.7851L22.6347 22.7665L22.2582 22.6946H22.1749L21.871 22.6122L21.7608 22.5962L21.4058 22.5536H21.3762C21.2498 22.5536 21.1207 22.527 20.9916 22.5191H20.8868L20.5883 22.5004H20.4861H20.1015H19.5987H19.2706H19.2087C19.0823 22.5004 18.9559 22.5164 18.8296 22.5297H18.722L18.4289 22.5616H18.324C18.1976 22.5776 18.0551 22.5935 17.9421 22.6148H17.8991L17.5603 22.6734L17.4527 22.6946L17.1488 22.7585L17.0682 22.7771H17.0386V13.695C17.0357 12.6651 16.6209 11.6781 15.8847 10.9498C15.1485 10.2216 14.1508 9.81117 13.1097 9.80836H9.18082V35.6474C9.18082 35.6474 9.162 41.1009 13.1689 42.2981C10.8158 40.7551 10.5684 37.8075 10.5711 34.9478V33.5192C10.5899 33.0111 10.5953 32.5083 10.5846 32.0242V32.0242Z" fill="#FC4E4D"/>
<path fill-rule="evenodd" clip-rule="evenodd" d="M18.8141 38.9655C16.6819 39.597 17.6627 37.5486 16.8898 37.5729C16.5086 37.5729 16.3567 37.2707 16.418 36.909C16.418 36.909 15.8849 36.7714 16.0022 36.0994C15.7837 36.0562 15.144 35.9213 15.0534 35.6946C14.9201 35.36 15.5651 34.0511 14.7495 33.0768C14.0859 32.2861 14.0859 30.1325 14.2378 29.1988C15.7277 33.7407 20.5572 30.9152 21.1409 34.6367C21.2635 35.422 20.941 37.2005 20.5119 37.7861C20.5119 37.7861 22.2844 36.9387 22.9853 35.7243C24.9204 32.3671 25.0296 38.9871 21.1383 40.717C18.9634 41.8693 15.773 41.6399 13.3369 41.6534C16.7858 44.1686 21.7779 45.0565 25.2642 42.3281C34.8726 33.8892 23.8089 21.4183 16.0529 25.9711C7.47056 31.0069 14.5336 42.4118 18.8141 38.9736" fill="#FC4E4D"/>
<path fill-rule="evenodd" clip-rule="evenodd" d="M16.0991 31.0657C16.2907 31.9923 17.5447 31.3779 18 31C17.7385 31.4217 17.3359 31.7566 16.8508 31.9562C16.0305 32.15 15.8606 31.6736 16.0991 31.0657Z" fill="#E4BBA6"/>
</svg>
