<svg width="577" height="203" viewBox="0 0 577 203" fill="none" xmlns="http://www.w3.org/2000/svg">
<path d="M0 80.5768C0 57.576 7.62305 38.4335 22.8691 23.1491C38.2633 7.71637 58.172 0 82.5954 0C106.871 0 126.631 7.34539 141.877 22.0362C157.42 36.727 165.191 56.2405 165.191 80.5768C165.191 104.023 157.346 123.314 141.655 138.45C126.113 153.586 106.427 161.154 82.5954 161.154C58.468 161.154 38.6333 153.808 23.0912 139.117C7.69706 124.427 0 104.913 0 80.5768ZM37.7452 80.5768C37.7452 93.7836 42.1118 104.987 50.845 114.188C59.4302 123.239 70.0136 127.765 82.5954 127.765C96.8053 127.765 107.833 123.388 115.678 114.633C123.523 105.581 127.446 94.2288 127.446 80.5768C127.446 66.4795 123.153 55.1276 114.568 46.5208C105.835 37.7657 95.1771 33.3882 82.5954 33.3882C69.5696 33.3882 58.8381 37.7657 50.4009 46.5208C41.9638 55.2759 37.7452 66.6279 37.7452 80.5768Z" fill="#BED3DE"/>
<path d="M191.977 146.24C181.911 136.149 176.879 123.536 176.879 108.4C176.879 93.2643 181.911 80.6509 191.977 70.5603C202.042 60.6181 215.512 55.6469 232.386 55.6469C249.26 55.6469 262.656 60.6181 272.574 70.5603C282.787 80.5026 287.894 93.1159 287.894 108.4C287.894 123.685 282.787 136.298 272.574 146.24C262.656 156.182 249.26 161.154 232.386 161.154C215.512 161.154 202.042 156.182 191.977 146.24ZM212.403 108.4C212.403 114.633 214.254 119.826 217.954 123.981C221.803 127.988 226.613 129.991 232.386 129.991C238.307 129.991 243.118 128.062 246.818 124.204C250.519 120.197 252.369 114.929 252.369 108.4C252.369 102.168 250.445 97.0482 246.596 93.0417C242.896 88.8867 238.159 86.8092 232.386 86.8092C226.613 86.8092 221.803 88.8125 217.954 92.8191C214.254 96.6773 212.403 101.871 212.403 108.4Z" fill="#BED3DE"/>
<path d="M339.976 203H306.671V58.318H339.976V65.886C346.784 59.0599 356.036 55.6469 367.729 55.6469C380.903 55.6469 391.635 60.4697 399.924 70.1151C408.213 79.7606 412.357 92.0029 412.357 106.842C412.357 122.423 407.399 135.408 397.481 145.795C387.416 156.034 374.464 161.154 358.626 161.154C351.225 161.154 345.008 160.115 339.976 158.037V203ZM357.294 86.8092C351.077 86.8092 345.304 89.777 339.976 95.7127V126.207C344.268 128.73 349.449 129.991 355.518 129.991C362.327 129.991 367.581 127.988 371.282 123.981C374.982 119.826 376.833 114.336 376.833 107.51C376.833 101.277 375.056 96.3063 371.504 92.5965C368.099 88.7383 363.363 86.8092 357.294 86.8092Z" fill="#BED3DE"/>
<path d="M480.864 128.878C480.864 126.207 474.647 123.388 462.214 120.42C457.773 119.381 453.777 118.194 450.224 116.859C446.82 115.523 443.267 113.668 439.567 111.294C435.866 108.92 432.98 105.803 430.907 101.945C428.983 97.9386 428.021 93.4126 428.021 88.3673C428.021 78.2767 431.647 70.3377 438.901 64.5504C446.154 58.6148 455.553 55.6469 467.098 55.6469C484.713 55.6469 498.701 60.1729 509.062 69.2248L496.628 92.8191C487.451 86.5866 478.274 83.4704 469.097 83.4704C466.876 83.4704 465.026 83.9156 463.546 84.8059C462.066 85.6963 461.326 86.735 461.326 87.9222C461.326 89.7029 463.102 91.1868 466.654 92.3739C470.355 93.561 474.795 94.8224 479.976 96.1579C485.157 97.345 490.338 98.9773 495.518 101.055C500.699 102.984 505.066 106.174 508.618 110.626C512.319 115.078 514.169 120.643 514.169 127.32C514.169 137.559 510.246 145.795 502.401 152.027C494.704 158.111 484.269 161.154 471.095 161.154C461.326 161.154 451.926 159.15 442.897 155.144C433.868 150.84 428.095 146.685 425.579 142.679L441.343 120.865C444.451 123.981 449.336 126.875 455.997 129.546C462.806 132.069 468.579 133.33 473.315 133.33C478.348 133.33 480.864 131.846 480.864 128.878Z" fill="#BED3DE"/>
<path d="M573.003 98.3838H537.479V2.67104H573.003V98.3838ZM533.482 137.114C533.482 131.624 535.628 126.801 539.921 122.646C544.214 118.342 549.616 116.191 556.129 116.191C561.902 116.191 566.787 118.342 570.783 122.646C574.928 126.801 577 131.624 577 137.114C577 143.346 575.002 148.689 571.005 153.14C567.157 157.592 562.198 159.818 556.129 159.818C549.468 159.818 543.991 157.666 539.699 153.363C535.554 148.911 533.482 143.495 533.482 137.114Z" fill="#BED3DE"/>
</svg>
